<svg version="1.1" id="Layer_1" xmlns="http://www.w3.org/2000/svg" xmlns:xlink="http://www.w3.org/1999/xlink" x="0px" y="0px"
	 width="100%" viewBox="0 0 1088 688" enable-background="new 0 0 1088 688" xml:space="preserve">
<path fill="#3F3D56" opacity="1.000000" stroke="none" 
	d="
M491.000000,1.000000 
	C507.020905,1.000000 523.041809,1.000000 539.753052,1.362845 
	C557.948181,3.821228 575.584839,5.154842 592.932129,8.159377 
	C639.491089,16.223351 683.570374,31.790394 724.960938,54.602741 
	C783.413269,86.818726 833.232178,129.572540 875.861450,180.676193 
	C924.523315,239.011612 956.087158,304.966675 963.471375,381.455872 
	C966.973572,417.733002 964.541931,453.602112 957.451111,489.250519 
	C952.206177,515.618652 943.874634,540.950378 931.681274,565.165833 
	C930.241394,564.459656 929.109192,563.760437 928.086792,562.926453 
	C848.958252,498.376892 769.838867,433.816010 690.717102,369.257996 
	C680.968811,361.304077 671.211792,353.360992 661.011414,345.048248 
	C648.647339,372.287933 636.551758,398.936035 624.171326,426.211578 
	C580.459595,376.114410 537.376221,326.737457 493.928711,276.943115 
	C485.192810,289.104553 476.950836,300.578369 468.440979,312.197845 
	C467.423126,313.550018 466.673126,314.756531 465.640808,316.141174 
	C452.707916,333.669617 440.043945,351.010162 427.431793,368.388306 
	C426.406494,369.801086 425.736145,371.471436 424.439880,373.038940 
	C416.639008,373.028656 409.299194,373.001556 402.016174,372.597351 
	C401.872711,371.589386 401.706879,370.945007 401.467224,370.329437 
	C378.135651,310.404236 354.799652,250.480759 331.458649,190.559235 
	C330.099762,187.070572 328.697754,183.598724 326.950195,179.198502 
	C270.394318,288.694275 214.334183,397.230255 157.707428,506.863251 
	C154.409927,499.289032 151.450882,493.143555 149.015793,486.797028 
	C127.452118,430.596222 120.738464,372.337494 125.913559,312.645996 
	C130.047806,264.960083 144.736557,220.520508 170.382980,180.064224 
	C210.966476,116.045212 268.447754,71.698990 336.360718,40.033245 
	C378.300110,20.478186 422.479095,8.626913 468.507141,3.704412 
	C476.015289,2.901447 483.502899,1.906312 491.000000,1.000000 
M485.984039,103.376137 
	C485.703583,100.705345 484.277954,99.202377 481.739838,100.521370 
	C480.870819,100.972992 480.155273,103.649467 480.680634,104.491646 
	C482.231445,106.977776 484.201752,106.294945 485.984039,103.376137 
M398.857422,208.758011 
	C400.232910,207.960266 401.702820,207.272064 402.886230,206.251587 
	C403.072662,206.090820 402.169373,203.889191 401.399323,203.592255 
	C400.426697,203.217209 398.212067,203.559555 398.054474,204.065887 
	C397.657166,205.342667 398.112701,206.884842 398.857422,208.758011 
z"/>
<path fill="#FCFCFC" opacity="1.000000" stroke="none" 
	d="
M490.531342,1.000000 
	C483.502899,1.906312 476.015289,2.901447 468.507141,3.704412 
	C422.479095,8.626913 378.300110,20.478186 336.360718,40.033245 
	C268.447754,71.698990 210.966476,116.045212 170.382980,180.064224 
	C144.736557,220.520508 130.047806,264.960083 125.913559,312.645996 
	C120.738464,372.337494 127.452118,430.596222 149.015793,486.797028 
	C151.450882,493.143555 154.409927,499.289032 157.707428,506.863251 
	C214.334183,397.230255 270.394318,288.694275 326.950195,179.198502 
	C328.697754,183.598724 330.099762,187.070572 331.458649,190.559235 
	C354.799652,250.480759 378.135651,310.404236 401.467224,370.329437 
	C401.706879,370.945007 401.872711,371.589386 401.549683,372.597046 
	C350.817688,372.973785 300.609009,372.973785 249.955536,372.973785 
	C249.955536,385.021362 249.973282,396.624451 249.952026,408.227478 
	C249.899292,437.012421 249.828735,465.797394 249.460175,494.742615 
	C234.298706,512.166565 224.682510,532.111755 220.068497,554.278748 
	C218.242630,563.050659 216.300354,570.910400 206.648773,574.079834 
	C193.255554,548.583984 180.118195,523.338013 166.980850,498.092102 
	C166.461945,498.262665 165.943039,498.433258 165.424133,498.603851 
	C166.681702,509.621704 167.939285,520.639526 168.967346,531.363525 
	C158.767471,518.270874 148.797104,505.472076 138.210052,491.881653 
	C138.116714,493.677185 138.020950,494.437897 138.046112,495.194641 
	C138.599380,511.839600 141.880280,527.897095 149.056076,542.977173 
	C158.977844,563.827881 173.378830,580.189880 195.724701,588.346680 
	C196.608673,588.669373 197.220001,589.739014 197.958374,590.460632 
	C196.597031,590.983704 195.262665,591.874451 193.870453,591.976562 
	C146.897812,595.422302 99.891914,598.458069 52.956589,602.346802 
	C35.328396,603.807373 17.522722,605.594360 1.000000,613.000000 
	C1.000000,409.080933 1.000000,205.161865 1.000000,1.000000 
	C164.020813,1.000000 327.041748,1.000000 490.531342,1.000000 
M358.781677,295.687256 
	C358.642426,295.048889 358.604156,294.366760 358.349182,293.778564 
	C351.675262,278.381989 345.003784,262.984283 338.274536,247.611862 
	C335.446808,241.152115 332.488739,234.749405 329.589935,228.320755 
	C329.135223,228.301804 328.680542,228.282852 328.225830,228.263885 
	C320.217316,245.848053 312.208771,263.432220 304.200256,281.016388 
	C304.541565,281.215973 304.882843,281.415558 305.224152,281.615173 
	C314.684204,271.370575 324.144257,261.126007 334.022583,250.428467 
	C341.501099,264.912689 348.418152,278.357117 355.400330,291.767670 
	C356.208557,293.320068 357.378754,294.684021 358.781677,295.687256 
M361.510834,302.445129 
	C361.510834,302.445129 361.546082,302.518036 361.510834,302.445129 
M360.486908,300.566406 
	C360.486908,300.566406 360.441559,300.479218 360.486908,300.566406 
M359.513977,298.425842 
	C359.513977,298.425842 359.563019,298.518341 359.513977,298.425842 
z"/>
<path fill="#FFFFFF" opacity="1.000000" stroke="none" 
	d="
M932.040161,565.109985 
	C943.874634,540.950378 952.206177,515.618652 957.451111,489.250519 
	C964.541931,453.602112 966.973572,417.733002 963.471375,381.455872 
	C956.087158,304.966675 924.523315,239.011612 875.861450,180.676193 
	C833.232178,129.572540 783.413269,86.818726 724.960938,54.602741 
	C683.570374,31.790394 639.491089,16.223351 592.932129,8.159377 
	C575.584839,5.154842 557.948181,3.821228 540.221741,1.362845 
	C722.931091,1.000000 905.862244,1.000000 1089.000000,1.000000 
	C1089.000000,205.020844 1089.000000,409.041779 1088.703125,613.350830 
	C1083.843628,611.785217 1079.435791,609.195251 1074.693115,608.196960 
	C1043.388306,601.608154 1011.539124,599.331238 979.725586,596.951111 
	C958.504700,595.363403 937.250977,594.214478 916.019226,592.512146 
	C916.603760,591.007141 917.109436,589.816101 917.769775,588.718201 
	C922.508911,580.838196 927.279541,572.977112 932.040161,565.109985 
z"/>
<path fill="#403E57" opacity="1.000000" stroke="none" 
	d="
M916.011963,592.869202 
	C937.250977,594.214478 958.504700,595.363403 979.725586,596.951111 
	C1011.539124,599.331238 1043.388306,601.608154 1074.693115,608.196960 
	C1079.435791,609.195251 1083.843628,611.785217 1088.703125,613.819458 
	C1089.000000,614.750000 1089.000000,615.500000 1088.645508,616.600342 
	C1084.875610,618.676819 1081.460205,620.402954 1077.791748,621.871826 
	C1069.727417,622.809814 1061.939087,624.188293 1054.100464,625.163757 
	C1035.034424,627.536377 1015.978149,630.070923 996.855713,631.883789 
	C978.047485,633.666809 959.171936,634.798523 940.308716,635.927124 
	C920.268250,637.126221 900.211243,638.070129 880.154419,638.968262 
	C862.571960,639.755676 844.982056,640.400513 827.391052,640.972229 
	C804.475220,641.716980 781.556335,642.379883 758.636169,642.977844 
	C742.348816,643.402771 726.058289,643.756470 709.766968,643.974609 
	C679.485901,644.380066 649.203796,644.858032 618.921082,644.953735 
	C568.283386,645.113831 517.644897,644.997498 466.998596,644.559631 
	C466.955353,642.075745 466.920227,640.029602 466.906738,637.516418 
	C466.943298,627.052185 466.975250,617.054993 466.967590,607.057861 
	C466.961975,599.715332 466.904541,592.372803 467.344360,585.084656 
	C477.210114,585.081299 486.601715,585.023621 496.425171,585.042358 
	C499.168091,585.090698 501.479126,585.062683 503.872009,585.376831 
	C504.093872,586.408264 504.233887,587.097534 503.912659,587.840149 
	C498.306213,587.768738 493.318237,588.004944 490.744507,593.597046 
	C488.134796,599.267334 492.209320,602.482727 495.408051,606.126343 
	C495.120667,606.478027 494.877747,606.915222 494.514618,607.197815 
	C490.928772,609.988586 488.757965,613.409668 490.622742,618.007385 
	C492.474396,622.572571 496.188202,624.180359 501.046356,624.052368 
	C508.364990,623.859558 515.692444,624.002563 523.016113,624.002319 
	C539.327942,624.001831 555.639954,623.958069 571.951477,624.028442 
	C576.492371,624.047974 579.666260,622.072327 581.382324,618.010803 
	C582.918213,614.375549 581.770996,611.177856 578.989319,608.513733 
	C578.174744,607.733582 577.334229,606.980652 576.264832,605.992798 
	C577.032104,605.286011 577.591431,604.732727 578.190002,604.225769 
	C581.394836,601.511353 583.076355,598.187927 581.412537,594.073669 
	C579.763550,589.996033 576.594604,587.855896 572.042297,587.979004 
	C570.551636,588.019348 569.054871,587.831787 567.620605,587.396729 
	C567.851624,586.352356 568.023010,585.659607 568.650757,584.976318 
	C628.456116,585.552307 687.805115,586.118774 747.903381,586.692322 
	C732.358215,573.624329 725.667358,556.794434 722.872803,537.595459 
	C722.933411,534.817078 722.933411,532.476135 722.933411,528.996094 
	C730.463867,538.425964 737.171448,546.825439 743.937439,555.595581 
	C747.169861,564.286011 749.812134,572.863037 753.674988,580.849731 
	C757.193848,588.125427 762.890320,593.779724 770.747437,596.409180 
	C768.672852,596.950073 766.920166,597.272644 765.110962,597.605591 
	C764.878296,601.576721 765.769897,604.785461 769.883606,605.345703 
	C776.277161,606.216553 782.730591,606.730835 789.175842,607.051453 
	C790.188049,607.101746 792.197815,605.335327 792.199158,604.406738 
	C792.206055,599.616028 784.809570,593.077332 780.187561,592.948242 
	C781.266907,591.033875 782.219727,589.448792 783.606445,587.937195 
	C786.688416,587.995178 789.336609,587.979614 792.433960,588.049561 
	C818.310425,589.089966 843.738220,590.032043 869.164795,591.004639 
	C884.781433,591.601990 900.396301,592.246155 916.011963,592.869202 
M923.862976,631.239502 
	C927.500488,630.849304 931.159241,630.595459 934.769714,630.031982 
	C938.672302,629.423035 939.495361,626.963989 937.360352,623.942261 
	C934.776184,620.285095 931.406921,617.157227 929.022156,613.391968 
	C926.762207,609.823792 923.833496,609.241150 920.503906,610.504944 
	C912.065369,613.708130 903.752075,617.241455 895.207764,620.716125 
	C896.517456,624.837708 896.920471,630.077515 902.571289,630.666504 
	C909.319092,631.369934 916.158569,631.194336 923.862976,631.239502 
M634.456299,628.818359 
	C639.101501,628.491089 643.751831,628.223022 648.390259,627.818237 
	C652.228210,627.483459 652.953003,625.252014 651.028137,622.328064 
	C649.209290,619.565002 646.703369,617.255981 644.868103,614.501770 
	C642.418518,610.825439 639.326965,610.056213 635.430725,611.618286 
	C630.355713,613.653015 625.385010,615.990112 620.210266,617.721436 
	C615.443970,619.316101 614.709412,620.134521 617.309509,624.376587 
	C618.308960,626.007385 620.291931,627.694336 622.082764,628.043579 
	C625.794006,628.767517 629.676636,628.612976 634.456299,628.818359 
z"/>
<path fill="#3A384E" opacity="1.000000" stroke="none" 
	d="
M467.006714,644.997437 
	C517.644897,644.997498 568.283386,645.113831 618.921082,644.953735 
	C649.203796,644.858032 679.485901,644.380066 709.766968,643.974609 
	C726.058289,643.756470 742.348816,643.402771 758.636169,642.977844 
	C781.556335,642.379883 804.475220,641.716980 827.391052,640.972229 
	C844.982056,640.400513 862.571960,639.755676 880.154419,638.968262 
	C900.211243,638.070129 920.268250,637.126221 940.308716,635.927124 
	C959.171936,634.798523 978.047485,633.666809 996.855713,631.883789 
	C1015.978149,630.070923 1035.034424,627.536377 1054.100464,625.163757 
	C1061.939087,624.188293 1069.727417,622.809814 1077.639160,622.198608 
	C1073.125244,624.565247 1068.623779,626.759094 1063.877319,628.058960 
	C1043.842773,633.545837 1023.882935,639.428101 1003.624512,643.950684 
	C956.826904,654.397766 909.573975,662.497131 861.947815,668.056763 
	C818.787720,673.095032 775.590454,678.066772 732.287720,681.556885 
	C692.615540,684.754517 652.780212,685.924683 613.019165,688.033508 
	C611.666199,688.105225 610.339111,688.666809 609.000000,689.000000 
	C602.978821,689.000000 596.957703,689.000000 590.187256,688.685852 
	C581.292053,688.581116 573.145996,688.790527 565.000000,689.000000 
	C545.645752,689.000000 526.291565,689.000000 506.222687,688.648071 
	C498.462830,688.181946 491.417633,688.005981 484.372375,688.004211 
	C482.914978,688.003845 481.457458,688.651184 480.000000,689.000000 
	C475.643097,689.000000 471.286194,689.000000 466.512939,688.584473 
	C466.391815,686.388000 466.927490,684.608948 466.941803,682.825684 
	C467.013367,673.888184 466.948425,664.949585 466.946350,655.552856 
	C466.976410,651.728638 466.991547,648.363037 467.006714,644.997437 
z"/>
<path fill="#403E57" opacity="1.000000" stroke="none" 
	d="
M1.000000,613.399963 
	C17.522722,605.594360 35.328396,603.807373 52.956589,602.346802 
	C99.891914,598.458069 146.897812,595.422302 193.870453,591.976562 
	C195.262665,591.874451 196.597031,590.983704 197.958374,590.460632 
	C197.220001,589.739014 196.608673,588.669373 195.724701,588.346680 
	C173.378830,580.189880 158.977844,563.827881 149.056076,542.977173 
	C141.880280,527.897095 138.599380,511.839600 138.046112,495.194641 
	C138.020950,494.437897 138.116714,493.677185 138.210052,491.881653 
	C148.797104,505.472076 158.767471,518.270874 169.052734,531.667236 
	C169.926544,534.170349 170.528534,536.064453 171.037430,537.983154 
	C174.424957,550.755615 178.858078,563.111206 186.866516,573.783264 
	C190.139404,578.144714 194.206451,581.910217 197.892746,585.925598 
	C201.446793,581.352539 204.175705,577.841125 206.904633,574.329773 
	C216.300354,570.910400 218.242630,563.050659 220.068497,554.278748 
	C224.682510,532.111755 234.298706,512.166565 249.519943,495.233887 
	C249.937637,500.712402 249.990417,505.859955 250.028442,511.450867 
	C250.026398,514.264648 250.039093,516.635132 250.036377,519.473633 
	C249.979797,529.327087 249.938614,538.712402 249.599670,548.227173 
	C246.213852,552.578552 243.125809,556.800537 239.915054,561.059814 
	C239.848434,561.048279 239.904526,560.999512 240.333069,561.059448 
	C241.213165,561.082520 241.720825,560.997009 242.622971,560.941528 
	C245.330872,560.623413 247.644287,560.275330 249.979218,560.400024 
	C250.015839,572.247314 250.030930,583.621765 250.029968,595.464844 
	C249.991913,602.950806 249.969940,609.968323 249.484528,616.989868 
	C241.876465,616.995178 234.709274,617.357910 227.592468,616.913757 
	C216.625732,616.229309 205.832260,614.662048 198.702271,603.771973 
	C197.745926,614.407166 206.276672,621.105469 213.312943,621.827637 
	C225.469177,623.075256 237.726273,623.340027 249.955078,624.482788 
	C249.961334,629.961243 249.953537,634.974182 249.482788,639.990601 
	C236.059784,639.656921 223.097961,639.374512 210.140350,638.960327 
	C203.174133,638.737610 196.212616,638.333069 189.253387,637.933472 
	C166.732391,636.640503 144.212494,635.328003 121.694450,633.984680 
	C116.562668,633.678589 111.433647,633.287720 106.314568,632.814636 
	C92.952339,631.579834 79.574280,630.471069 66.243813,628.950256 
	C52.089821,627.335449 37.981209,625.320251 23.857227,623.446350 
	C18.955862,622.796021 14.067799,622.045532 8.848928,621.304810 
	C6.016136,619.845825 3.508074,618.422913 1.000006,617.000000 
	C1.000000,615.933289 1.000000,614.866638 1.000000,613.399963 
M129.807480,612.466858 
	C127.827499,613.094910 125.847519,613.722900 123.957664,614.322388 
	C124.235550,619.316895 126.644180,621.748413 130.947800,621.725708 
	C136.925156,621.694153 142.905838,621.332947 148.874084,620.944214 
	C151.786011,620.754578 152.538605,619.219238 151.168732,616.505676 
	C146.553223,607.362366 142.225479,605.964172 133.193466,610.828735 
	C132.317596,611.300415 131.419052,611.730103 129.807480,612.466858 
z"/>
<path fill="#FEFEFE" opacity="1.000000" stroke="none" 
	d="
M609.468628,689.000000 
	C610.339111,688.666809 611.666199,688.105225 613.019165,688.033508 
	C652.780212,685.924683 692.615540,684.754517 732.287720,681.556885 
	C775.590454,678.066772 818.787720,673.095032 861.947815,668.056763 
	C909.573975,662.497131 956.826904,654.397766 1003.624512,643.950684 
	C1023.882935,639.428101 1043.842773,633.545837 1063.877319,628.058960 
	C1068.623779,626.759094 1073.125244,624.565247 1077.892212,622.455872 
	C1081.460205,620.402954 1084.875610,618.676819 1088.645508,616.975342 
	C1089.000000,640.980957 1089.000000,664.961975 1089.000000,689.000000 
	C929.312439,689.000000 769.624878,689.000000 609.468628,689.000000 
z"/>
<path fill="#FEFEFE" opacity="1.000000" stroke="none" 
	d="
M1.000006,617.468628 
	C3.508074,618.422913 6.016136,619.845825 9.115616,621.576721 
	C20.484753,625.600037 31.102045,629.893372 42.066383,632.936218 
	C110.207031,651.846680 179.934769,662.240356 249.954910,671.584900 
	C249.986420,677.696228 249.993210,683.348145 250.000000,689.000000 
	C167.113251,689.000000 84.226501,689.000000 1.000000,689.000000 
	C1.000000,665.313538 1.000000,641.625427 1.000006,617.468628 
z"/>
<path fill="#162849" opacity="1.000000" stroke="none" 
	d="
M250.468658,689.000000 
	C249.993210,683.348145 249.986420,677.696228 249.972626,671.109009 
	C249.959000,660.111511 249.952377,650.049255 249.945740,639.987061 
	C249.953537,634.974182 249.961334,629.961243 249.974243,624.043213 
	C249.968872,621.087280 249.958420,619.036499 249.947968,616.985779 
	C249.969940,609.968323 249.991913,602.950806 250.400742,595.527100 
	C253.970169,595.120789 257.152771,595.120789 261.142548,595.120789 
	C259.192932,591.318115 258.684082,588.742920 263.251495,588.216248 
	C264.709473,593.100464 264.747101,598.861633 271.167725,600.204224 
	C279.746246,601.997925 288.511902,604.771790 294.887207,595.469421 
	C294.999420,595.305664 295.502563,595.409851 296.191620,595.365051 
	C297.069794,598.032288 298.221466,600.752258 298.847931,603.588318 
	C300.330658,610.300964 305.334686,614.146362 312.246216,615.173157 
	C316.688263,615.833130 321.561615,617.258118 325.044739,619.911438 
	C331.528076,624.850037 332.991974,625.471313 340.065430,620.982300 
	C341.126770,620.308777 342.285370,619.788391 342.464172,619.693481 
	C345.987366,621.854980 348.780212,623.456970 351.455719,625.235474 
	C355.678986,628.042847 359.654572,631.274963 364.074280,633.712036 
	C366.205017,634.886963 369.676849,635.782043 371.547363,634.836792 
	C375.665802,632.755615 379.061401,629.291931 382.920929,626.638245 
	C387.507538,623.484741 392.111633,620.286987 397.016754,617.691650 
	C400.095337,616.062744 403.536774,616.461792 406.034485,619.544373 
	C407.392578,621.220520 408.626190,623.014771 410.115143,624.564331 
	C413.487305,628.073730 416.231445,627.889954 419.565186,624.404053 
	C420.538055,623.386780 422.123230,622.162537 423.307434,622.277100 
	C428.418365,622.771545 431.071686,619.329712 434.203156,616.359131 
	C438.274323,612.497192 442.625153,608.930786 446.720673,605.093262 
	C447.990540,603.903381 448.846771,602.262329 449.846893,600.796753 
	C451.209656,598.799744 452.481201,596.739197 453.879181,594.767822 
	C455.472351,592.521179 457.323364,590.443542 458.775452,588.113586 
	C461.776306,583.298767 462.324493,577.968079 462.108124,572.367432 
	C461.989777,569.303162 462.419159,565.903687 466.590271,565.457642 
	C466.761322,572.285034 466.815765,578.657654 466.870209,585.030273 
	C466.904541,592.372803 466.961975,599.715332 466.967590,607.057861 
	C466.975250,617.054993 466.943298,627.052185 466.510101,637.521362 
	C464.026947,638.512634 461.846741,638.765259 459.917847,639.599121 
	C453.112854,642.540894 446.479431,641.648132 441.739990,636.074646 
	C437.561646,631.161011 431.174011,631.419800 426.822540,631.919556 
	C421.059204,632.581482 416.317871,630.856689 411.326080,629.702087 
	C406.619781,628.613525 403.552185,628.803162 403.033417,633.552246 
	C402.354950,639.763672 398.658173,643.630493 395.035614,647.675354 
	C393.065918,649.874756 390.091309,651.173950 387.570770,652.880310 
	C385.793732,654.083435 383.875275,655.124573 382.268555,656.523560 
	C377.485199,660.688416 374.115509,667.188293 367.106415,667.793396 
	C357.029114,668.663391 346.876678,668.739929 336.752075,668.949463 
	C332.402008,669.039490 330.267212,665.902832 331.299866,661.661682 
	C331.960449,658.948547 332.552002,656.217285 333.114136,653.481750 
	C334.224915,648.076355 341.517944,640.615051 346.900146,640.171997 
	C350.691315,639.859924 352.585907,638.637695 351.887726,634.702942 
	C351.326111,631.537781 346.579102,627.935364 344.079224,629.392700 
	C340.578094,631.433899 338.423401,630.525696 335.844177,628.102173 
	C334.912109,627.226318 333.010193,627.453857 331.618774,626.978882 
	C329.543518,626.270508 327.591064,625.056946 325.473022,624.653748 
	C322.375732,624.064270 318.398468,622.709656 316.212067,624.028442 
	C313.186371,625.853394 310.304443,629.592773 309.527802,633.005493 
	C308.729309,636.514343 310.535248,640.615845 311.143982,644.126404 
	C309.734894,645.653381 307.868011,646.848022 307.227325,648.514160 
	C304.459076,655.713196 292.791626,658.041565 287.552979,652.200989 
	C284.811249,649.144165 282.086792,646.050964 279.622009,642.773071 
	C277.547241,640.013733 275.858826,636.963989 274.000397,634.042175 
	C273.200928,632.785278 272.404053,631.526794 271.606018,630.269043 
	C270.740051,631.625977 269.232147,632.926392 269.106995,634.348450 
	C267.799072,649.212036 270.554840,663.077881 280.101837,675.002625 
	C281.881622,677.225708 283.747192,679.849976 287.502899,677.574341 
	C293.758728,673.783875 303.671692,676.299133 308.802734,683.186218 
	C306.763428,683.490784 305.049622,684.015015 303.360382,683.945251 
	C299.392090,683.781128 295.440094,683.139038 291.473175,683.045898 
	C285.605713,682.908142 285.569733,683.083435 287.000000,689.000000 
	C274.979095,689.000000 262.958221,689.000000 250.468658,689.000000 
z"/>
<path fill="#192C4E" opacity="1.000000" stroke="none" 
	d="
M287.468658,689.000000 
	C285.569733,683.083435 285.605713,682.908142 291.473175,683.045898 
	C295.440094,683.139038 299.392090,683.781128 303.360382,683.945251 
	C305.049622,684.015015 306.763428,683.490784 308.802734,683.186218 
	C303.671692,676.299133 293.758728,673.783875 287.502899,677.574341 
	C283.747192,679.849976 281.881622,677.225708 280.101837,675.002625 
	C270.554840,663.077881 267.799072,649.212036 269.106995,634.348450 
	C269.232147,632.926392 270.740051,631.625977 271.606018,630.269043 
	C272.404053,631.526794 273.200928,632.785278 274.000397,634.042175 
	C275.858826,636.963989 277.547241,640.013733 279.622009,642.773071 
	C282.086792,646.050964 284.811249,649.144165 287.552979,652.200989 
	C292.791626,658.041565 304.459076,655.713196 307.227325,648.514160 
	C307.868011,646.848022 309.734894,645.653381 311.143982,644.126404 
	C310.535248,640.615845 308.729309,636.514343 309.527802,633.005493 
	C310.304443,629.592773 313.186371,625.853394 316.212067,624.028442 
	C318.398468,622.709656 322.375732,624.064270 325.473022,624.653748 
	C327.591064,625.056946 329.543518,626.270508 331.618774,626.978882 
	C333.010193,627.453857 334.912109,627.226318 335.844177,628.102173 
	C338.423401,630.525696 340.578094,631.433899 344.079224,629.392700 
	C346.579102,627.935364 351.326111,631.537781 351.887726,634.702942 
	C352.585907,638.637695 350.691315,639.859924 346.900146,640.171997 
	C341.517944,640.615051 334.224915,648.076355 333.114136,653.481750 
	C332.552002,656.217285 331.960449,658.948547 331.299866,661.661682 
	C330.267212,665.902832 332.402008,669.039490 336.752075,668.949463 
	C346.876678,668.739929 357.029114,668.663391 367.106415,667.793396 
	C374.115509,667.188293 377.485199,660.688416 382.268555,656.523560 
	C383.875275,655.124573 385.793732,654.083435 387.570770,652.880310 
	C390.091309,651.173950 393.065918,649.874756 395.035614,647.675354 
	C398.658173,643.630493 402.354950,639.763672 403.033417,633.552246 
	C403.552185,628.803162 406.619781,628.613525 411.326080,629.702087 
	C416.317871,630.856689 421.059204,632.581482 426.822540,631.919556 
	C431.174011,631.419800 437.561646,631.161011 441.739990,636.074646 
	C446.479431,641.648132 453.112854,642.540894 459.917847,639.599121 
	C461.846741,638.765259 464.026947,638.512634 466.488464,637.988464 
	C466.920227,640.029602 466.955353,642.075745 466.998596,644.559631 
	C466.991547,648.363037 466.976410,651.728638 466.541382,655.549622 
	C460.831879,658.128052 455.507172,660.168823 450.265137,662.403625 
	C446.923096,663.828369 443.710907,665.555908 440.427368,667.120117 
	C434.555969,669.917114 428.856323,673.218323 422.746948,675.331970 
	C416.508453,677.490356 409.863708,678.474365 403.396790,679.972473 
	C403.464569,680.601318 403.532318,681.230103 403.600067,681.858948 
	C411.923096,685.648438 421.498230,679.717590 430.232086,684.167053 
	C428.946167,686.089844 427.973083,687.544922 427.000000,689.000000 
	C380.645782,689.000000 334.291534,689.000000 287.468658,689.000000 
z"/>
<path fill="#162648" opacity="1.000000" stroke="none" 
	d="
M427.468658,689.000000 
	C427.973083,687.544922 428.946167,686.089844 430.232086,684.167053 
	C421.498230,679.717590 411.923096,685.648438 403.600067,681.858948 
	C403.532318,681.230103 403.464569,680.601318 403.396790,679.972473 
	C409.863708,678.474365 416.508453,677.490356 422.746948,675.331970 
	C428.856323,673.218323 434.555969,669.917114 440.427368,667.120117 
	C443.710907,665.555908 446.923096,663.828369 450.265137,662.403625 
	C455.507172,660.168823 460.831879,658.128052 466.526489,656.008179 
	C466.948425,664.949585 467.013367,673.888184 466.941803,682.825684 
	C466.927490,684.608948 466.391815,686.388000 466.048279,688.584473 
	C453.312439,689.000000 440.624878,689.000000 427.468658,689.000000 
z"/>
<path fill="#C5C4DC" opacity="1.000000" stroke="none" 
	d="
M480.468658,689.000000 
	C481.457458,688.651184 482.914978,688.003845 484.372375,688.004211 
	C491.417633,688.005981 498.462830,688.181946 505.754028,688.648071 
	C497.645782,689.000000 489.291534,689.000000 480.468658,689.000000 
z"/>
<path fill="#646374" opacity="1.000000" stroke="none" 
	d="
M565.468628,689.000000 
	C573.145996,688.790527 581.292053,688.581116 589.718994,688.685852 
	C581.979065,689.000000 573.958191,689.000000 565.468628,689.000000 
z"/>
<path fill="#F2F2F2" opacity="1.000000" stroke="none" 
	d="
M722.812195,538.032837 
	C725.667358,556.794434 732.358215,573.624329 747.903381,586.692322 
	C687.805115,586.118774 628.456116,585.552307 568.630798,584.560608 
	C567.976013,576.200867 568.856812,568.070251 567.430359,560.366821 
	C562.082825,531.487427 549.847473,505.061157 536.893127,478.964203 
	C536.721863,478.619324 536.145569,478.475494 535.762207,478.240173 
	C528.035767,489.875671 514.335388,524.279297 503.981415,557.022766 
	C495.184113,541.966003 486.745453,527.103943 478.112061,512.355957 
	C474.647980,506.438507 470.755768,500.771637 466.957275,494.550323 
	C466.734131,491.412903 466.612122,488.715851 466.601379,485.560730 
	C466.636047,471.408295 466.559418,457.713898 466.594421,443.561523 
	C466.635193,435.401550 466.564331,427.699615 466.601776,419.592651 
	C466.658997,417.795807 466.607880,416.403961 466.671814,414.593079 
	C466.711029,412.444794 466.635223,410.715454 466.640808,408.538971 
	C466.649078,405.067291 466.575928,402.042816 466.609985,398.559631 
	C466.717163,389.887024 466.717163,381.673096 466.717163,373.164917 
	C462.160309,373.164917 458.078339,373.164917 453.532898,373.092255 
	C444.045654,373.068390 435.021881,373.117188 425.728851,373.091492 
	C425.273407,373.018707 425.087189,373.020416 424.900940,373.022095 
	C425.736145,371.471436 426.406494,369.801086 427.431793,368.388306 
	C440.043945,351.010162 452.707916,333.669617 466.114319,316.154907 
	C474.196167,315.994293 481.529785,315.814392 488.843323,316.118439 
	C490.928284,316.205078 493.445312,317.187439 494.934784,318.620880 
	C518.424744,341.227753 541.789124,363.965363 565.161194,386.694580 
	C579.114990,400.264526 593.025635,413.878876 606.981323,427.446869 
	C607.887939,428.328308 609.014709,428.983307 610.039062,429.743652 
	C610.312805,429.404175 610.586548,429.064697 610.860229,428.725220 
	C608.761414,426.438721 606.598145,424.207672 604.574341,421.856567 
	C592.883850,408.275482 581.274719,394.624084 569.542603,381.079224 
	C559.653442,369.662109 549.574707,358.409302 539.687134,346.990906 
	C525.675293,330.809692 511.736877,314.564667 497.829376,298.293701 
	C495.269379,295.298676 493.009796,294.087067 489.686829,297.449280 
	C487.257965,299.906860 484.350647,301.939636 481.476929,303.898132 
	C477.305847,306.740814 472.972839,309.345856 468.708862,312.052185 
	C476.950836,300.578369 485.192810,289.104553 493.928711,276.943115 
	C537.376221,326.737457 580.459595,376.114410 624.171326,426.211578 
	C636.551758,398.936035 648.647339,372.287933 661.011414,345.048248 
	C671.211792,353.360992 680.968811,361.304077 690.717102,369.257996 
	C769.838867,433.816010 848.958252,498.376892 928.086792,562.926453 
	C929.109192,563.760437 930.241394,564.459656 931.681274,565.165833 
	C927.279541,572.977112 922.508911,580.838196 917.769775,588.718201 
	C917.109436,589.816101 916.603760,591.007141 916.019226,592.512146 
	C900.396301,592.246155 884.781433,591.601990 869.164795,591.004639 
	C843.738220,590.032043 818.310425,589.089966 792.370972,587.716919 
	C790.022644,584.761230 788.078308,582.234314 791.145874,578.921021 
	C791.180481,578.421936 791.127563,578.221375 791.042725,578.012451 
	C791.010803,578.004089 791.037842,578.064209 791.329468,578.041931 
	C791.758301,577.677612 791.895569,577.335571 792.011414,576.991333 
	C791.990051,576.989197 791.997131,577.031555 792.284302,577.000610 
	C792.711182,576.634644 792.850830,576.299561 792.997437,575.984863 
	C793.004333,576.005188 792.962708,575.994324 793.245178,575.962036 
	C793.672607,575.601318 793.817505,575.272949 793.978394,574.971985 
	C793.994324,574.999451 793.935425,574.975464 794.255493,574.879089 
	C794.741028,574.198914 794.906555,573.615112 795.038574,573.019775 
	C795.005066,573.008179 795.048462,573.064270 795.404297,573.113342 
	C796.863953,571.454590 797.967773,569.746826 799.037720,568.023315 
	C799.003784,568.007507 799.050232,568.066101 799.388550,568.209229 
	C811.194031,555.013550 822.663025,541.676147 834.107666,528.317993 
	C834.240356,528.163147 834.058960,527.739197 834.011353,527.330750 
	C832.695923,527.261169 831.376038,527.191345 830.157715,526.796631 
	C834.861084,520.503052 839.463013,514.534363 844.488708,508.015930 
	C842.695557,508.015930 841.871826,507.972321 841.054626,508.027130 
	C840.062927,508.093689 839.072632,508.215302 838.088806,508.360870 
	C816.404053,511.569214 800.947510,524.004517 790.468201,542.399902 
	C785.208618,551.632568 782.241028,562.170898 777.877808,572.065186 
	C770.696777,565.857849 763.909058,559.665344 757.026489,553.580017 
	C755.485229,552.217346 753.611877,551.230286 751.920471,550.034302 
	C751.949524,549.998291 751.928284,550.088318 751.916260,549.769409 
	C751.504395,548.996338 751.104675,548.542175 750.480103,547.838013 
	C747.604065,542.728149 744.952698,537.868408 742.301392,533.008606 
	C741.913086,533.175415 741.524841,533.342224 741.136597,533.509094 
	C741.362732,535.006042 741.588867,536.502991 741.488342,537.935791 
	C740.350525,537.312317 739.443481,536.852966 738.742310,536.179321 
	C720.526245,518.677673 702.355042,501.129272 684.125793,483.641357 
	C669.498352,469.608704 654.810547,455.638947 640.121643,441.670593 
	C639.512451,441.091278 638.619629,440.810211 637.858948,440.390167 
	C638.162231,442.360596 639.169006,443.533386 640.197449,444.686920 
	C643.621399,448.527344 647.101135,452.319244 650.473450,456.204376 
	C662.866516,470.482086 675.185242,484.824463 687.608826,499.075562 
	C697.747192,510.705170 707.976318,522.255920 718.217102,533.795654 
	C719.593079,535.346191 721.273010,536.627075 722.812195,538.032837 
M617.511230,437.451599 
	C617.511230,437.451599 617.537964,437.509918 617.511230,437.451599 
M630.537903,432.513672 
	C630.537903,432.513672 630.479553,432.540894 630.537903,432.513672 
z"/>
<path fill="#192C50" opacity="1.000000" stroke="none" 
	d="
M424.439880,373.038940 
	C425.087189,373.020416 425.273407,373.018707 425.724670,373.505432 
	C426.018738,379.399658 425.759521,384.830627 426.228058,390.198090 
	C426.399628,392.163605 428.189301,395.518127 429.424530,395.604309 
	C435.877716,396.054382 437.316742,400.324371 438.323151,405.401062 
	C438.636658,406.982574 439.426697,408.469666 439.998657,410.416504 
	C439.997559,412.221222 439.996338,413.609375 439.643524,415.055328 
	C435.515137,417.187653 431.488068,420.523376 429.595917,413.161804 
	C429.524902,412.885529 429.127594,412.446869 428.954895,412.478607 
	C422.730408,413.622009 419.087891,408.976776 414.632660,406.154388 
	C414.378113,405.993164 413.983368,406.016693 413.653748,406.015930 
	C408.238770,406.003235 402.811707,405.794342 397.415680,406.111603 
	C395.619995,406.217194 392.405396,407.741974 392.438080,408.506958 
	C392.529083,410.636444 393.874329,412.764740 394.933197,414.783966 
	C395.790039,416.417938 397.544769,417.777008 397.872559,419.458527 
	C399.275269,426.654236 405.871002,429.559052 412.197144,425.515228 
	C416.385376,422.838013 419.242920,423.912689 420.989349,428.662537 
	C421.478180,429.992126 422.268250,432.087921 423.186249,432.241455 
	C429.495850,433.296844 429.923767,438.328400 430.655670,442.942505 
	C428.996613,441.255737 427.578796,439.698059 426.387360,437.983154 
	C423.350861,433.612610 419.155853,431.723541 413.944824,430.900604 
	C406.277069,429.689606 398.702545,427.856018 391.132263,426.098389 
	C390.104065,425.859680 388.758575,424.659668 388.530396,423.679016 
	C386.976807,417.001495 385.683197,410.263519 384.322113,403.625214 
	C375.813477,402.029419 378.179688,410.377411 375.172699,414.239960 
	C373.808014,412.675171 372.900940,411.635071 371.722443,410.283783 
	C370.764893,412.214813 369.944672,413.868896 369.135040,415.501587 
	C371.424561,416.755310 373.135406,417.692200 374.846283,418.629089 
	C374.785767,419.187256 374.725220,419.745453 374.664703,420.303619 
	C371.208801,420.852600 367.462372,422.539795 364.349426,421.745239 
	C353.352203,418.938202 344.102081,422.782288 335.046753,428.037994 
	C333.594879,428.880646 332.506073,430.348877 331.249451,431.527893 
	C332.548828,432.418549 333.734619,433.626038 335.168945,434.140167 
	C339.405182,435.658569 340.149078,438.909180 338.182220,442.047363 
	C336.800964,444.251312 333.897736,445.894196 331.325989,446.869629 
	C327.198212,448.435242 322.554321,448.730194 318.553864,450.515350 
	C314.738403,452.217896 311.280701,454.912842 308.014954,457.596466 
	C305.421570,459.727692 301.587494,462.380859 301.409027,465.012848 
	C300.985718,471.254211 297.157257,473.065430 292.577026,475.032288 
	C289.561951,476.326996 286.755707,478.106812 283.851166,479.660431 
	C278.103088,482.735046 272.607452,486.557617 266.516541,488.623352 
	C262.064697,490.133240 259.532410,492.679535 257.409576,496.314545 
	C256.224182,498.344391 255.081192,500.399017 253.786224,502.676056 
	C254.976990,502.761658 256.112335,502.982452 257.222809,502.893311 
	C259.353271,502.722260 262.572205,500.843597 262.583954,504.574982 
	C262.589569,506.361755 259.882568,508.796112 257.845276,509.779724 
	C255.575958,510.875366 252.671295,510.655029 250.043198,511.007507 
	C249.990417,505.859955 249.937637,500.712402 249.825104,495.073608 
	C249.828735,465.797394 249.899292,437.012421 249.952026,408.227478 
	C249.973282,396.624451 249.955536,385.021362 249.955536,372.973785 
	C300.609009,372.973785 350.817688,372.973785 401.492859,372.974121 
	C409.299194,373.001556 416.639008,373.028656 424.439880,373.038940 
z"/>
<path fill="#DBDBDB" opacity="1.000000" stroke="none" 
	d="
M468.441010,312.197876 
	C472.972839,309.345856 477.305847,306.740814 481.476929,303.898132 
	C484.350647,301.939636 487.257965,299.906860 489.686829,297.449280 
	C493.009796,294.087067 495.269379,295.298676 497.829376,298.293701 
	C511.736877,314.564667 525.675293,330.809692 539.687134,346.990906 
	C549.574707,358.409302 559.653442,369.662109 569.542603,381.079224 
	C581.274719,394.624084 592.883850,408.275482 604.574341,421.856567 
	C606.598145,424.207672 608.761414,426.438721 610.860229,428.725220 
	C610.586548,429.064697 610.312805,429.404175 610.039062,429.743652 
	C609.014709,428.983307 607.887939,428.328308 606.981323,427.446869 
	C593.025635,413.878876 579.114990,400.264526 565.161194,386.694580 
	C541.789124,363.965363 518.424744,341.227753 494.934784,318.620880 
	C493.445312,317.187439 490.928284,316.205078 488.843323,316.118439 
	C481.529785,315.814392 474.196167,315.994293 466.396606,315.976746 
	C466.673126,314.756531 467.423126,313.550018 468.441010,312.197876 
z"/>
<path fill="#D8D8DA" opacity="1.000000" stroke="none" 
	d="
M485.879700,103.754364 
	C484.201752,106.294945 482.231445,106.977776 480.680634,104.491646 
	C480.155273,103.649467 480.870819,100.972992 481.739838,100.521370 
	C484.277954,99.202377 485.703583,100.705345 485.879700,103.754364 
z"/>
<path fill="#D8D8DA" opacity="1.000000" stroke="none" 
	d="
M398.541931,208.539337 
	C398.112701,206.884842 397.657166,205.342667 398.054474,204.065887 
	C398.212067,203.559555 400.426697,203.217209 401.399323,203.592255 
	C402.169373,203.889191 403.072662,206.090820 402.886230,206.251587 
	C401.702820,207.272064 400.232910,207.960266 398.541931,208.539337 
z"/>
<path fill="#6E65FE" opacity="1.000000" stroke="none" 
	d="
M206.648758,574.079834 
	C204.175705,577.841125 201.446793,581.352539 197.892746,585.925598 
	C194.206451,581.910217 190.139404,578.144714 186.866516,573.783264 
	C178.858078,563.111206 174.424957,550.755615 171.037430,537.983154 
	C170.528534,536.064453 169.926544,534.170349 169.282227,531.961182 
	C167.939285,520.639526 166.681702,509.621704 165.424133,498.603851 
	C165.943039,498.433258 166.461945,498.262665 166.980850,498.092102 
	C180.118195,523.338013 193.255554,548.583984 206.648758,574.079834 
z"/>
<path fill="#DCDCDC" opacity="1.000000" stroke="none" 
	d="
M358.581421,295.911316 
	C357.378754,294.684021 356.208557,293.320068 355.400330,291.767670 
	C348.418152,278.357117 341.501099,264.912689 334.022583,250.428467 
	C324.144257,261.126007 314.684204,271.370575 305.224152,281.615173 
	C304.882843,281.415558 304.541565,281.215973 304.200256,281.016388 
	C312.208771,263.432220 320.217316,245.848053 328.225830,228.263885 
	C328.680542,228.282852 329.135223,228.301804 329.589935,228.320755 
	C332.488739,234.749405 335.446808,241.152115 338.274536,247.611862 
	C345.003784,262.984283 351.675262,278.381989 358.349182,293.778564 
	C358.604156,294.366760 358.642426,295.048889 358.581421,295.911316 
z"/>
<path fill="#DCDCDC" opacity="1.000000" stroke="none" 
	d="
M361.528442,302.481567 
	C361.546082,302.518036 361.510834,302.445129 361.528442,302.481567 
z"/>
<path fill="#DCDCDC" opacity="1.000000" stroke="none" 
	d="
M360.464233,300.522827 
	C360.441559,300.479218 360.486908,300.566406 360.464233,300.522827 
z"/>
<path fill="#DCDCDC" opacity="1.000000" stroke="none" 
	d="
M359.538513,298.472107 
	C359.563019,298.518341 359.513977,298.425842 359.538513,298.472107 
z"/>
<path fill="#FF6685" opacity="1.000000" stroke="none" 
	d="
M504.261902,557.263306 
	C514.335388,524.279297 528.035767,489.875671 535.762207,478.240173 
	C536.145569,478.475494 536.721863,478.619324 536.893127,478.964203 
	C549.847473,505.061157 562.082825,531.487427 567.430359,560.366821 
	C568.856812,568.070251 567.976013,576.200867 568.174438,584.551147 
	C568.023010,585.659607 567.851624,586.352356 567.192261,587.478088 
	C561.478760,587.885864 556.253296,587.860657 551.020386,587.406616 
	C550.129639,571.062317 543.322815,557.228149 535.888367,543.407715 
	C528.814697,557.695557 521.101562,571.493958 520.510742,587.901001 
	C514.824341,587.906738 509.599121,587.846802 504.373932,587.786865 
	C504.233887,587.097534 504.093872,586.408264 503.888428,584.957581 
	C503.969360,575.218567 504.115631,566.240967 504.261902,557.263306 
z"/>
<path fill="#2F2E41" opacity="1.000000" stroke="none" 
	d="
M503.912659,587.840149 
	C509.599121,587.846802 514.824341,587.906738 520.977600,587.963867 
	C531.613037,587.919189 541.320435,587.877319 551.027771,587.835449 
	C556.253296,587.860657 561.478760,587.885864 567.132568,587.829712 
	C569.054871,587.831787 570.551636,588.019348 572.042297,587.979004 
	C576.594604,587.855896 579.763550,589.996033 581.412537,594.073669 
	C583.076355,598.187927 581.394836,601.511353 578.190002,604.225769 
	C577.591431,604.732727 577.032104,605.286011 576.264832,605.992798 
	C577.334229,606.980652 578.174744,607.733582 578.989319,608.513733 
	C581.770996,611.177856 582.918213,614.375549 581.382324,618.010803 
	C579.666260,622.072327 576.492371,624.047974 571.951477,624.028442 
	C555.639954,623.958069 539.327942,624.001831 523.016113,624.002319 
	C515.692444,624.002563 508.364990,623.859558 501.046356,624.052368 
	C496.188202,624.180359 492.474396,622.572571 490.622742,618.007385 
	C488.757965,613.409668 490.928772,609.988586 494.514618,607.197815 
	C494.877747,606.915222 495.120667,606.478027 495.408051,606.126343 
	C492.209320,602.482727 488.134796,599.267334 490.744507,593.597046 
	C493.318237,588.004944 498.306213,587.768738 503.912659,587.840149 
z"/>
<path fill="#413F59" opacity="1.000000" stroke="none" 
	d="
M778.236877,572.118774 
	C782.241028,562.170898 785.208618,551.632568 790.468201,542.399902 
	C800.947510,524.004517 816.404053,511.569214 838.088806,508.360870 
	C839.072632,508.215302 840.062927,508.093689 841.054626,508.027130 
	C841.871826,507.972321 842.695557,508.015930 844.488708,508.015930 
	C839.463013,514.534363 834.861084,520.503052 829.884521,526.972290 
	C823.997192,534.579041 818.400513,541.622131 812.997253,548.810547 
	C808.236084,555.144775 803.690857,561.641296 799.050293,568.066162 
	C799.050232,568.066101 799.003784,568.007507 798.696533,568.058411 
	C797.275696,569.760986 796.162109,571.412598 795.048462,573.064270 
	C795.048462,573.064270 795.005066,573.008179 794.716187,573.106628 
	C794.263367,573.795227 794.099365,574.385315 793.935425,574.975464 
	C793.935425,574.975464 793.994324,574.999451 793.675659,574.966553 
	C793.225525,575.287231 793.094116,575.640808 792.962708,575.994324 
	C792.962708,575.994324 793.004333,576.005188 792.708069,576.010132 
	C792.273560,576.353882 792.135376,576.692749 791.997131,577.031555 
	C791.997131,577.031555 791.990051,576.989197 791.725952,577.022949 
	C791.320557,577.392517 791.179199,577.728394 791.037842,578.064209 
	C791.037842,578.064209 791.010803,578.004089 790.744202,578.107300 
	C790.256958,578.563171 790.036377,578.915833 789.626892,579.511475 
	C787.349487,582.457458 785.260986,585.160583 783.172485,587.863708 
	C782.219727,589.448792 781.266907,591.033875 779.917847,593.130249 
	C777.862854,594.068481 776.204041,594.495361 774.384521,594.580322 
	C773.310730,592.154114 772.397644,590.069885 771.947021,587.957520 
	C774.506836,588.106567 776.077637,588.003479 776.316772,585.119080 
	C776.677917,580.762512 777.570312,576.450012 778.236877,572.118774 
z"/>
<path fill="#DADADA" opacity="1.000000" stroke="none" 
	d="
M503.981445,557.022766 
	C504.115631,566.240967 503.969360,575.218567 503.806610,584.615479 
	C501.479126,585.062683 499.168091,585.090698 496.423615,584.663025 
	C495.721252,583.257446 495.561340,582.259583 495.166931,581.364990 
	C490.017395,569.685303 484.940369,557.971741 479.625793,546.367188 
	C475.565430,537.501099 471.193817,528.777649 466.846954,519.534607 
	C466.841675,511.049225 466.950073,503.019958 467.058411,494.990692 
	C470.755768,500.771637 474.647980,506.438507 478.112061,512.355957 
	C486.745453,527.103943 495.184113,541.966003 503.981445,557.022766 
z"/>
<path fill="#DADADA" opacity="1.000000" stroke="none" 
	d="
M722.872803,537.595459 
	C721.273010,536.627075 719.593079,535.346191 718.217102,533.795654 
	C707.976318,522.255920 697.747192,510.705170 687.608826,499.075562 
	C675.185242,484.824463 662.866516,470.482086 650.473450,456.204376 
	C647.101135,452.319244 643.621399,448.527344 640.197449,444.686920 
	C639.169006,443.533386 638.162231,442.360596 637.858948,440.390167 
	C638.619629,440.810211 639.512451,441.091278 640.121643,441.670593 
	C654.810547,455.638947 669.498352,469.608704 684.125793,483.641357 
	C702.355042,501.129272 720.526245,518.677673 738.742310,536.179321 
	C739.443481,536.852966 740.350525,537.312317 741.561157,538.369568 
	C742.600098,544.320068 743.239563,549.772461 743.879089,555.224915 
	C737.171448,546.825439 730.463867,538.425964 722.933411,528.996094 
	C722.933411,532.476135 722.933411,534.817078 722.872803,537.595459 
z"/>
<path fill="#F2F2F2" opacity="1.000000" stroke="none" 
	d="
M466.960602,519.990723 
	C471.193817,528.777649 475.565430,537.501099 479.625793,546.367188 
	C484.940369,557.971741 490.017395,569.685303 495.166931,581.364990 
	C495.561340,582.259583 495.721252,583.257446 495.991730,584.586670 
	C486.601715,585.023621 477.210114,585.081299 467.344360,585.084656 
	C466.815765,578.657654 466.761322,572.285034 466.700409,565.000610 
	C466.666840,557.716003 466.639740,551.343323 466.744385,544.616394 
	C466.788086,543.523132 466.700012,542.784119 466.666809,541.576660 
	C466.801270,534.069153 466.880920,527.029907 466.960602,519.990723 
z"/>
<path fill="#A4A4A4" opacity="1.000000" stroke="none" 
	d="
M923.410645,631.319458 
	C916.158569,631.194336 909.319092,631.369934 902.571289,630.666504 
	C896.920471,630.077515 896.517456,624.837708 895.207764,620.716125 
	C903.752075,617.241455 912.065369,613.708130 920.503906,610.504944 
	C923.833496,609.241150 926.762207,609.823792 929.022156,613.391968 
	C931.406921,617.157227 934.776184,620.285095 937.360352,623.942261 
	C939.495361,626.963989 938.672302,629.423035 934.769714,630.031982 
	C931.159241,630.595459 927.500488,630.849304 923.410645,631.319458 
z"/>
<path fill="#6D65FD" opacity="1.000000" stroke="none" 
	d="
M743.937439,555.595581 
	C743.239563,549.772461 742.600098,544.320068 741.887817,538.433838 
	C741.588867,536.502991 741.362732,535.006042 741.136597,533.509094 
	C741.524841,533.342224 741.913086,533.175415 742.301392,533.008606 
	C744.952698,537.868408 747.604065,542.728149 750.550415,548.137085 
	C751.206421,549.153564 751.567383,549.620972 751.928284,550.088318 
	C751.928284,550.088318 751.949524,549.998291 751.954407,550.393860 
	C758.467712,563.188171 764.976135,575.586914 771.484558,587.985657 
	C772.397644,590.069885 773.310730,592.154114 774.091187,594.831543 
	C772.995483,595.680115 772.032349,595.935486 771.069275,596.190857 
	C762.890320,593.779724 757.193848,588.125427 753.674988,580.849731 
	C749.812134,572.863037 747.169861,564.286011 743.937439,555.595581 
z"/>
<path fill="#A4A4A4" opacity="1.000000" stroke="none" 
	d="
M633.972534,628.818970 
	C629.676636,628.612976 625.794006,628.767517 622.082764,628.043579 
	C620.291931,627.694336 618.308960,626.007385 617.309509,624.376587 
	C614.709412,620.134521 615.443970,619.316101 620.210266,617.721436 
	C625.385010,615.990112 630.355713,613.653015 635.430725,611.618286 
	C639.326965,610.056213 642.418518,610.825439 644.868103,614.501770 
	C646.703369,617.255981 649.209290,619.565002 651.028137,622.328064 
	C652.953003,625.252014 652.228210,627.483459 648.390259,627.818237 
	C643.751831,628.223022 639.101501,628.491089 633.972534,628.818970 
z"/>
<path fill="#A4A4A4" opacity="1.000000" stroke="none" 
	d="
M770.747437,596.409180 
	C772.032349,595.935486 772.995483,595.680115 774.251892,595.173584 
	C776.204041,594.495361 777.862854,594.068481 779.791382,593.459595 
	C784.809570,593.077332 792.206055,599.616028 792.199158,604.406738 
	C792.197815,605.335327 790.188049,607.101746 789.175842,607.051453 
	C782.730591,606.730835 776.277161,606.216553 769.883606,605.345703 
	C765.769897,604.785461 764.878296,601.576721 765.110962,597.605591 
	C766.920166,597.272644 768.672852,596.950073 770.747437,596.409180 
z"/>
<path fill="#C5C4DC" opacity="1.000000" stroke="none" 
	d="
M783.606384,587.937195 
	C785.260986,585.160583 787.349487,582.457458 789.939453,579.520874 
	C790.646667,579.264832 790.852539,579.242249 791.058472,579.219604 
	C788.078308,582.234314 790.022644,584.761230 791.921753,587.631470 
	C789.336609,587.979614 786.688416,587.995178 783.606384,587.937195 
z"/>
<path fill="#152443" opacity="1.000000" stroke="none" 
	d="
M466.846954,519.534607 
	C466.880920,527.029907 466.801270,534.069153 466.483978,541.778809 
	C466.368439,543.289734 466.490540,544.130127 466.612640,544.970581 
	C466.639740,551.343323 466.666840,557.716003 466.583862,564.545776 
	C462.419159,565.903687 461.989777,569.303162 462.108124,572.367432 
	C462.324493,577.968079 461.776306,583.298767 458.775452,588.113586 
	C457.323364,590.443542 455.472351,592.521179 453.879181,594.767822 
	C452.481201,596.739197 451.209656,598.799744 449.846893,600.796753 
	C448.846771,602.262329 447.990540,603.903381 446.720673,605.093262 
	C442.625153,608.930786 438.274323,612.497192 434.203156,616.359131 
	C431.071686,619.329712 428.418365,622.771545 423.307434,622.277100 
	C422.123230,622.162537 420.538055,623.386780 419.565186,624.404053 
	C416.231445,627.889954 413.487305,628.073730 410.115143,624.564331 
	C408.626190,623.014771 407.392578,621.220520 406.034485,619.544373 
	C403.536774,616.461792 400.095337,616.062744 397.016754,617.691650 
	C392.111633,620.286987 387.507538,623.484741 382.920929,626.638245 
	C379.061401,629.291931 375.665802,632.755615 371.547363,634.836792 
	C369.676849,635.782043 366.205017,634.886963 364.074280,633.712036 
	C359.654572,631.274963 355.678986,628.042847 351.455719,625.235474 
	C348.780212,623.456970 345.987366,621.854980 342.464172,619.693481 
	C342.285370,619.788391 341.126770,620.308777 340.065430,620.982300 
	C332.991974,625.471313 331.528076,624.850037 325.044739,619.911438 
	C321.561615,617.258118 316.688263,615.833130 312.246216,615.173157 
	C305.334686,614.146362 300.330658,610.300964 298.847931,603.588318 
	C298.221466,600.752258 297.069794,598.032288 296.191620,595.365051 
	C295.502563,595.409851 294.999420,595.305664 294.887207,595.469421 
	C288.511902,604.771790 279.746246,601.997925 271.167725,600.204224 
	C264.747101,598.861633 264.709473,593.100464 263.251495,588.216248 
	C258.684082,588.742920 259.192932,591.318115 261.142548,595.120789 
	C257.152771,595.120789 253.970169,595.120789 250.416809,595.058533 
	C250.030930,583.621765 250.015839,572.247314 250.002151,559.967590 
	C249.948151,556.759216 249.892731,554.456055 249.901962,551.751648 
	C249.943542,550.266174 249.920486,549.182007 249.897430,548.097778 
	C249.938614,538.712402 249.979797,529.327087 250.409073,519.458008 
	C254.537811,516.988281 258.380096,515.170105 261.998077,512.981262 
	C269.634186,508.361359 269.988708,504.352295 262.917236,498.156830 
	C265.409149,496.356567 267.598114,493.573456 270.161560,493.170044 
	C275.726898,492.294159 279.567383,488.849884 283.994080,486.232056 
	C284.420624,486.645142 284.728638,486.812714 285.307434,487.172424 
	C297.166077,496.545319 308.716766,505.773590 320.361053,514.882141 
	C324.673553,518.255493 326.283264,517.943726 328.552704,512.741638 
	C332.268646,504.223999 335.788361,495.603363 338.946320,486.865509 
	C341.322754,480.290161 340.684540,479.580383 333.738831,480.094116 
	C323.138153,480.878174 312.559357,481.957184 301.744080,482.691772 
	C300.693207,482.355927 299.869507,482.239288 299.087738,481.765625 
	C300.448822,480.260315 301.602936,478.781555 303.117737,478.025146 
	C307.796234,475.688843 310.595917,471.924103 310.857361,466.892731 
	C311.040741,463.363007 312.911133,462.136169 315.530396,460.687408 
	C324.968689,455.467194 335.251434,452.982361 345.043335,451.415436 
	C345.397858,447.392731 346.113495,443.979706 345.895294,440.627502 
	C345.580475,435.790009 347.625488,433.889465 352.067291,434.481628 
	C351.491272,437.115479 350.785645,439.356171 350.646729,441.631439 
	C349.162170,465.947662 344.214325,489.421082 334.019623,511.670319 
	C326.014374,529.141174 313.564301,543.140625 299.326569,555.625610 
	C295.614502,558.880737 295.456696,561.404297 298.596527,564.610657 
	C303.128326,569.238525 307.693115,573.839172 312.397949,578.288513 
	C313.362305,579.200439 315.006256,579.393799 316.336975,579.918396 
	C316.797913,578.584290 317.588806,577.269958 317.669769,575.913147 
	C318.692352,558.778809 327.624023,547.228394 343.144745,540.894531 
	C367.083832,531.125244 397.919891,545.250488 400.359863,574.243530 
	C400.519073,576.135437 400.920013,578.007080 401.312103,580.563354 
	C403.183014,579.632629 404.530579,579.301147 405.404907,578.471130 
	C410.336731,573.789124 415.207550,569.039490 419.993439,564.208191 
	C423.192169,560.979065 422.311157,558.570923 418.892670,555.637085 
	C401.193909,540.447388 387.129730,522.640686 379.275696,500.270538 
	C372.604736,481.270111 368.521027,461.851746 367.840485,441.723999 
	C367.717285,438.080048 367.644226,434.627686 362.304138,434.958984 
	C359.575806,435.128265 356.785034,434.290741 354.096680,433.539978 
	C355.346985,432.453888 356.453613,431.566589 357.712402,431.050476 
	C361.300415,429.579376 365.196869,428.677399 368.490509,426.735046 
	C370.740448,425.408173 371.897369,425.203583 374.054626,426.791931 
	C378.642426,430.169800 383.570374,432.599213 389.739075,431.972443 
	C393.168304,431.624054 396.762726,432.571686 400.242859,433.167847 
	C402.652252,433.580597 405.018890,434.309601 407.360291,435.039551 
	C412.599365,436.672943 418.132812,437.772827 422.940521,440.260773 
	C427.510315,442.625641 431.424072,446.346863 435.378418,449.758942 
	C436.579193,450.795105 437.456146,452.736328 437.615662,454.348633 
	C438.066925,458.909393 437.610809,463.601501 438.456360,468.062927 
	C438.839020,470.082062 441.162994,472.654785 443.126862,473.245483 
	C446.404114,474.231171 448.171753,475.222839 448.428894,479.005798 
	C448.538483,480.617767 450.751434,482.943542 452.442017,483.425934 
	C457.000183,484.726624 461.791382,485.210693 466.490112,486.018799 
	C466.612122,488.715851 466.734131,491.412903 466.957275,494.550323 
	C466.950073,503.019958 466.841675,511.049225 466.846954,519.534607 
M429.802429,485.151550 
	C427.151886,484.947998 424.493103,484.819336 421.852234,484.528198 
	C408.965424,483.107452 396.085052,481.628326 383.198456,480.205505 
	C380.143097,479.868164 376.832428,479.813660 378.517242,484.389160 
	C382.300629,494.663940 386.351471,504.841217 390.378845,515.024414 
	C391.351562,517.484009 393.141693,518.324341 395.495239,516.578979 
	C407.381683,507.764038 419.267822,498.948486 431.117371,490.084137 
	C433.449432,488.339569 433.591980,486.612122 429.802429,485.151550 
M277.357513,577.017212 
	C275.677185,584.786865 282.928314,593.112000 290.777130,592.066467 
	C294.949005,591.510803 296.406982,589.445496 294.130798,585.882263 
	C292.628632,583.530701 290.592285,581.527649 288.916168,579.278381 
	C285.232605,574.335266 283.498413,573.844666 277.357513,577.017212 
M255.707825,590.504028 
	C255.119080,590.148499 254.530350,589.792969 253.941620,589.437439 
	C253.788330,590.003723 253.635040,590.570007 253.481750,591.136292 
	C254.171738,591.127869 254.861725,591.119507 255.707825,590.504028 
z"/>
<path fill="#3A384E" opacity="1.000000" stroke="none" 
	d="
M249.482803,639.990601 
	C249.952377,650.049255 249.959000,660.111511 249.947906,670.649536 
	C179.934769,662.240356 110.207031,651.846680 42.066383,632.936218 
	C31.102045,629.893372 20.484753,625.600037 9.440347,621.612793 
	C14.067799,622.045532 18.955862,622.796021 23.857227,623.446350 
	C37.981209,625.320251 52.089821,627.335449 66.243813,628.950256 
	C79.574280,630.471069 92.952339,631.579834 106.314568,632.814636 
	C111.433647,633.287720 116.562668,633.678589 121.694450,633.984680 
	C144.212494,635.328003 166.732391,636.640503 189.253387,637.933472 
	C196.212616,638.333069 203.174133,638.737610 210.140350,638.960327 
	C223.097961,639.374512 236.059784,639.656921 249.482803,639.990601 
z"/>
<path fill="#162749" opacity="1.000000" stroke="none" 
	d="
M283.875549,485.986542 
	C279.567383,488.849884 275.726898,492.294159 270.161560,493.170044 
	C267.598114,493.573456 265.409149,496.356567 262.917236,498.156830 
	C269.988708,504.352295 269.634186,508.361359 261.998077,512.981262 
	C258.380096,515.170105 254.537811,516.988281 250.424469,518.989990 
	C250.039093,516.635132 250.026398,514.264648 250.028442,511.450867 
	C252.671295,510.655029 255.575958,510.875366 257.845276,509.779724 
	C259.882568,508.796112 262.589569,506.361755 262.583954,504.574982 
	C262.572205,500.843597 259.353271,502.722260 257.222809,502.893311 
	C256.112335,502.982452 254.976990,502.761658 253.786224,502.676056 
	C255.081192,500.399017 256.224182,498.344391 257.409576,496.314545 
	C259.532410,492.679535 262.064697,490.133240 266.516541,488.623352 
	C272.607452,486.557617 278.103088,482.735046 283.851166,479.660431 
	C286.755707,478.106812 289.561951,476.326996 292.577026,475.032288 
	C297.157257,473.065430 300.985718,471.254211 301.409027,465.012848 
	C301.587494,462.380859 305.421570,459.727692 308.014954,457.596466 
	C311.280701,454.912842 314.738403,452.217896 318.553864,450.515350 
	C322.554321,448.730194 327.198212,448.435242 331.325989,446.869629 
	C333.897736,445.894196 336.800964,444.251312 338.182220,442.047363 
	C340.149078,438.909180 339.405182,435.658569 335.168945,434.140167 
	C333.734619,433.626038 332.548828,432.418549 331.249451,431.527893 
	C332.506073,430.348877 333.594879,428.880646 335.046753,428.037994 
	C344.102081,422.782288 353.352203,418.938202 364.349426,421.745239 
	C367.462372,422.539795 371.208801,420.852600 374.664703,420.303619 
	C374.725220,419.745453 374.785767,419.187256 374.846283,418.629089 
	C373.135406,417.692200 371.424561,416.755310 369.135040,415.501587 
	C369.944672,413.868896 370.764893,412.214813 371.722443,410.283783 
	C372.900940,411.635071 373.808014,412.675171 375.172699,414.239960 
	C378.179688,410.377411 375.813477,402.029419 384.322113,403.625214 
	C385.683197,410.263519 386.976807,417.001495 388.530396,423.679016 
	C388.758575,424.659668 390.104065,425.859680 391.132263,426.098389 
	C398.702545,427.856018 406.277069,429.689606 413.944824,430.900604 
	C419.155853,431.723541 423.350861,433.612610 426.387360,437.983154 
	C427.578796,439.698059 428.996613,441.255737 431.030273,442.943115 
	C432.498383,443.002014 433.247528,443.002838 434.096741,443.348267 
	C439.796906,445.688629 445.080139,451.208374 451.408569,444.966431 
	C452.281372,444.105591 454.187378,444.092224 455.626770,444.045166 
	C459.241882,443.927124 462.863678,444.014496 466.482819,444.019470 
	C466.559418,457.713898 466.636047,471.408295 466.601379,485.560730 
	C461.791382,485.210693 457.000183,484.726624 452.442017,483.425934 
	C450.751434,482.943542 448.538483,480.617767 448.428894,479.005798 
	C448.171753,475.222839 446.404114,474.231171 443.126862,473.245483 
	C441.162994,472.654785 438.839020,470.082062 438.456360,468.062927 
	C437.610809,463.601501 438.066925,458.909393 437.615662,454.348633 
	C437.456146,452.736328 436.579193,450.795105 435.378418,449.758942 
	C431.424072,446.346863 427.510315,442.625641 422.940521,440.260773 
	C418.132812,437.772827 412.599365,436.672943 407.360291,435.039551 
	C405.018890,434.309601 402.652252,433.580597 400.242859,433.167847 
	C396.762726,432.571686 393.168304,431.624054 389.739075,431.972443 
	C383.570374,432.599213 378.642426,430.169800 374.054626,426.791931 
	C371.897369,425.203583 370.740448,425.408173 368.490509,426.735046 
	C365.196869,428.677399 361.300415,429.579376 357.712402,431.050476 
	C356.453613,431.566589 355.346985,432.453888 353.800262,433.623749 
	C353.020050,434.085388 352.610443,434.094971 352.200836,434.104553 
	C347.625488,433.889465 345.580475,435.790009 345.895294,440.627502 
	C346.113495,443.979706 345.397858,447.392731 345.043335,451.415436 
	C335.251434,452.982361 324.968689,455.467194 315.530396,460.687408 
	C312.911133,462.136169 311.040741,463.363007 310.857361,466.892731 
	C310.595917,471.924103 307.796234,475.688843 303.117737,478.025146 
	C301.602936,478.781555 300.448822,480.260315 299.060333,481.951965 
	C298.912598,482.739014 298.873383,482.988892 298.460205,483.374268 
	C296.025543,483.645050 294.003967,483.786469 291.807556,483.646790 
	C288.064972,480.883057 286.729095,483.906891 285.019653,486.018860 
	C285.006744,485.996887 285.043060,486.035889 284.752319,485.996002 
	C284.266266,485.966248 284.070892,485.976379 283.875549,485.986542 
z"/>
<path fill="#3A384E" opacity="1.000000" stroke="none" 
	d="
M249.484528,616.989868 
	C249.958420,619.036499 249.968872,621.087280 249.960190,623.577637 
	C237.726273,623.340027 225.469177,623.075256 213.312943,621.827637 
	C206.276672,621.105469 197.745926,614.407166 198.702271,603.771973 
	C205.832260,614.662048 216.625732,616.229309 227.592468,616.913757 
	C234.709274,617.357910 241.876465,616.995178 249.484528,616.989868 
z"/>
<path fill="#A4A4A4" opacity="1.000000" stroke="none" 
	d="
M130.169250,612.323120 
	C131.419052,611.730103 132.317596,611.300415 133.193466,610.828735 
	C142.225479,605.964172 146.553223,607.362366 151.168732,616.505676 
	C152.538605,619.219238 151.786011,620.754578 148.874084,620.944214 
	C142.905838,621.332947 136.925156,621.694153 130.947800,621.725708 
	C126.644180,621.748413 124.235550,619.316895 123.957664,614.322388 
	C125.847519,613.722900 127.827499,613.094910 130.169250,612.323120 
z"/>
<path fill="#E4E4ED" opacity="1.000000" stroke="none" 
	d="
M249.837326,552.152893 
	C249.892731,554.456055 249.948151,556.759216 249.980652,559.494812 
	C247.644287,560.275330 245.330872,560.623413 242.754196,560.653198 
	C244.939728,557.607544 247.388535,554.880188 249.837326,552.152893 
z"/>
<path fill="#7169F7" opacity="1.000000" stroke="none" 
	d="
M249.901962,551.751648 
	C247.388535,554.880188 244.939728,557.607544 242.359711,560.623169 
	C241.720825,560.997009 241.213165,561.082520 240.351166,561.078613 
	C239.996796,560.989197 240.037735,561.022522 240.037750,561.022522 
	C243.125809,556.800537 246.213852,552.578552 249.599670,548.227173 
	C249.920486,549.182007 249.943542,550.266174 249.901962,551.751648 
z"/>
<path fill="#7169F7" opacity="1.000000" stroke="none" 
	d="
M239.978699,560.969971 
	C239.904526,560.999512 239.848434,561.048279 239.915039,561.059814 
	C240.037735,561.022522 239.996796,560.989197 239.978699,560.969971 
z"/>
<path fill="#182D55" opacity="1.000000" stroke="none" 
	d="
M433.996704,443.003662 
	C433.247528,443.002838 432.498383,443.002014 431.374603,443.000610 
	C429.923767,438.328400 429.495850,433.296844 423.186249,432.241455 
	C422.268250,432.087921 421.478180,429.992126 420.989349,428.662537 
	C419.242920,423.912689 416.385376,422.838013 412.197144,425.515228 
	C405.871002,429.559052 399.275269,426.654236 397.872559,419.458527 
	C397.544769,417.777008 395.790039,416.417938 394.933197,414.783966 
	C393.874329,412.764740 392.529083,410.636444 392.438080,408.506958 
	C392.405396,407.741974 395.619995,406.217194 397.415680,406.111603 
	C402.811707,405.794342 408.238770,406.003235 413.653748,406.015930 
	C413.983368,406.016693 414.378113,405.993164 414.632660,406.154388 
	C419.087891,408.976776 422.730408,413.622009 428.954895,412.478607 
	C429.127594,412.446869 429.524902,412.885529 429.595917,413.161804 
	C431.488068,420.523376 435.515137,417.187653 439.642487,415.451019 
	C439.223999,418.114594 438.455017,420.440277 437.685883,422.765839 
	C436.790710,425.472687 435.304443,428.156769 435.199066,430.893982 
	C435.123474,432.858429 436.435211,436.117737 437.923798,436.675446 
	C443.028534,438.588013 447.886139,436.829895 449.370728,433.365784 
	C453.011536,424.870605 456.399994,416.260162 460.297699,407.885864 
	C461.796783,404.665039 464.401764,401.958954 466.502808,399.018311 
	C466.575928,402.042816 466.649078,405.067291 466.309143,408.588165 
	C463.109741,411.395477 462.915314,413.417542 466.556763,415.012085 
	C466.607880,416.403961 466.658997,417.795807 466.205627,419.595184 
	C462.054047,419.556488 459.396912,420.374084 457.969910,424.367157 
	C456.357178,428.879974 454.129547,433.180481 452.038910,437.510345 
	C451.449615,438.730865 450.554138,440.502655 449.540314,440.701447 
	C444.406006,441.708008 439.186401,442.279572 433.996704,443.003662 
z"/>
<path fill="#1A325B" opacity="1.000000" stroke="none" 
	d="
M466.609985,398.559631 
	C464.401764,401.958954 461.796783,404.665039 460.297699,407.885864 
	C456.399994,416.260162 453.011536,424.870605 449.370728,433.365784 
	C447.886139,436.829895 443.028534,438.588013 437.923798,436.675446 
	C436.435211,436.117737 435.123474,432.858429 435.199066,430.893982 
	C435.304443,428.156769 436.790710,425.472687 437.685883,422.765839 
	C438.455017,420.440277 439.223999,418.114594 439.994080,415.393250 
	C439.996338,413.609375 439.997559,412.221222 440.268677,410.167267 
	C440.742279,401.202728 449.857178,396.435394 449.170654,387.764771 
	C449.137024,387.339783 449.444092,386.758240 449.778381,386.453552 
	C453.755341,382.828522 453.889130,378.004578 453.996338,373.164917 
	C458.078339,373.164917 462.160309,373.164917 466.717163,373.164917 
	C466.717163,381.673096 466.717163,389.887024 466.609985,398.559631 
z"/>
<path fill="#182D55" opacity="1.000000" stroke="none" 
	d="
M453.532898,373.092255 
	C453.889130,378.004578 453.755341,382.828522 449.778381,386.453552 
	C449.444092,386.758240 449.137024,387.339783 449.170654,387.764771 
	C449.857178,396.435394 440.742279,401.202728 440.268555,409.750732 
	C439.426697,408.469666 438.636658,406.982574 438.323151,405.401062 
	C437.316742,400.324371 435.877716,396.054382 429.424530,395.604309 
	C428.189301,395.518127 426.399628,392.163605 426.228058,390.198090 
	C425.759521,384.830627 426.018738,379.399658 425.993896,373.579895 
	C435.021881,373.117188 444.045654,373.068390 453.532898,373.092255 
z"/>
<path fill="#162A51" opacity="1.000000" stroke="none" 
	d="
M434.096741,443.348267 
	C439.186401,442.279572 444.406006,441.708008 449.540314,440.701447 
	C450.554138,440.502655 451.449615,438.730865 452.038910,437.510345 
	C454.129547,433.180481 456.357178,428.879974 457.969910,424.367157 
	C459.396912,420.374084 462.054047,419.556488 466.097290,420.000183 
	C466.564331,427.699615 466.635193,435.401550 466.594421,443.561493 
	C462.863678,444.014496 459.241882,443.927124 455.626770,444.045166 
	C454.187378,444.092224 452.281372,444.105591 451.408569,444.966431 
	C445.080139,451.208374 439.796906,445.688629 434.096741,443.348267 
z"/>
<path fill="#D8D8DA" opacity="1.000000" stroke="none" 
	d="
M771.947021,587.957520 
	C764.976135,575.586914 758.467712,563.188171 751.925354,550.429871 
	C753.611877,551.230286 755.485229,552.217346 757.026489,553.580017 
	C763.909058,559.665344 770.696777,565.857849 777.877808,572.065186 
	C777.570312,576.450012 776.677917,580.762512 776.316772,585.119080 
	C776.077637,588.003479 774.506836,588.106567 771.947021,587.957520 
z"/>
<path fill="#7169F7" opacity="1.000000" stroke="none" 
	d="
M799.388550,568.209229 
	C803.690857,561.641296 808.236084,555.144775 812.997253,548.810547 
	C818.400513,541.622131 823.997192,534.579041 829.783020,527.297119 
	C831.376038,527.191345 832.695923,527.261169 834.011353,527.330750 
	C834.058960,527.739197 834.240356,528.163147 834.107666,528.317993 
	C822.663025,541.676147 811.194031,555.013550 799.388550,568.209229 
z"/>
<path fill="#403E57" opacity="1.000000" stroke="none" 
	d="
M466.671814,414.593079 
	C462.915314,413.417542 463.109741,411.395477 466.227783,409.035339 
	C466.635223,410.715454 466.711029,412.444794 466.671814,414.593079 
z"/>
<path fill="#7169F7" opacity="1.000000" stroke="none" 
	d="
M795.404297,573.113342 
	C796.162109,571.412598 797.275696,569.760986 798.730469,568.074219 
	C797.967773,569.746826 796.863953,571.454590 795.404297,573.113342 
z"/>
<path fill="#D8D8DA" opacity="1.000000" stroke="none" 
	d="
M751.916260,549.769409 
	C751.567383,549.620972 751.206421,549.153564 750.775208,548.387085 
	C751.104675,548.542175 751.504395,548.996338 751.916260,549.769409 
z"/>
<path fill="#7169F7" opacity="1.000000" stroke="none" 
	d="
M794.255493,574.879089 
	C794.099365,574.385315 794.263367,573.795227 794.749756,573.118164 
	C794.906555,573.615112 794.741028,574.198914 794.255493,574.879089 
z"/>
<path fill="#7169F7" opacity="1.000000" stroke="none" 
	d="
M791.145874,578.921021 
	C790.852539,579.242249 790.646667,579.264832 790.128296,579.277954 
	C790.036377,578.915833 790.256958,578.563171 790.776123,578.115662 
	C791.127563,578.221375 791.180481,578.421936 791.145874,578.921021 
z"/>
<path fill="#DBDBDB" opacity="1.000000" stroke="none" 
	d="
M617.524597,437.480774 
	C617.537964,437.509918 617.511230,437.451599 617.524597,437.480774 
z"/>
<path fill="#DADADA" opacity="1.000000" stroke="none" 
	d="
M630.508728,432.527283 
	C630.479553,432.540894 630.537903,432.513672 630.508728,432.527283 
z"/>
<path fill="#7169F7" opacity="1.000000" stroke="none" 
	d="
M791.329468,578.041931 
	C791.179199,577.728394 791.320557,577.392517 791.747314,577.025146 
	C791.895569,577.335571 791.758301,577.677612 791.329468,578.041931 
z"/>
<path fill="#7169F7" opacity="1.000000" stroke="none" 
	d="
M792.284302,577.000610 
	C792.135376,576.692749 792.273560,576.353882 792.701172,575.989746 
	C792.850830,576.299561 792.711182,576.634644 792.284302,577.000610 
z"/>
<path fill="#7169F7" opacity="1.000000" stroke="none" 
	d="
M793.245178,575.962036 
	C793.094116,575.640808 793.225525,575.287231 793.659668,574.939087 
	C793.817505,575.272949 793.672607,575.601318 793.245178,575.962036 
z"/>
<path fill="#E65B77" opacity="1.000000" stroke="none" 
	d="
M551.020386,587.406616 
	C541.320435,587.877319 531.613037,587.919189 521.438843,587.898193 
	C521.101562,571.493958 528.814697,557.695557 535.888367,543.407715 
	C543.322815,557.228149 550.129639,571.062317 551.020386,587.406616 
z"/>
<path fill="#403E57" opacity="1.000000" stroke="none" 
	d="
M466.744385,544.616394 
	C466.490540,544.130127 466.368439,543.289734 466.429138,542.247192 
	C466.700012,542.784119 466.788086,543.523132 466.744385,544.616394 
z"/>
<path fill="#D4BD67" opacity="1.000000" stroke="none" 
	d="
M352.067291,434.481628 
	C352.610443,434.094971 353.020050,434.085388 353.726074,433.992065 
	C356.785034,434.290741 359.575806,435.128265 362.304138,434.958984 
	C367.644226,434.627686 367.717285,438.080048 367.840485,441.723999 
	C368.521027,461.851746 372.604736,481.270111 379.275696,500.270538 
	C387.129730,522.640686 401.193909,540.447388 418.892670,555.637085 
	C422.311157,558.570923 423.192169,560.979065 419.993439,564.208191 
	C415.207550,569.039490 410.336731,573.789124 405.404907,578.471130 
	C404.530579,579.301147 403.183014,579.632629 401.312103,580.563354 
	C400.920013,578.007080 400.519073,576.135437 400.359863,574.243530 
	C397.919891,545.250488 367.083832,531.125244 343.144745,540.894531 
	C327.624023,547.228394 318.692352,558.778809 317.669769,575.913147 
	C317.588806,577.269958 316.797913,578.584290 316.336975,579.918396 
	C315.006256,579.393799 313.362305,579.200439 312.397949,578.288513 
	C307.693115,573.839172 303.128326,569.238525 298.596527,564.610657 
	C295.456696,561.404297 295.614502,558.880737 299.326569,555.625610 
	C313.564301,543.140625 326.014374,529.141174 334.019623,511.670319 
	C344.214325,489.421082 349.162170,465.947662 350.646729,441.631439 
	C350.785645,439.356171 351.491272,437.115479 352.067291,434.481628 
z"/>
<path fill="#D2BB67" opacity="1.000000" stroke="none" 
	d="
M430.193634,485.252991 
	C433.591980,486.612122 433.449432,488.339569 431.117371,490.084137 
	C419.267822,498.948486 407.381683,507.764038 395.495239,516.578979 
	C393.141693,518.324341 391.351562,517.484009 390.378845,515.024414 
	C386.351471,504.841217 382.300629,494.663940 378.517242,484.389160 
	C376.832428,479.813660 380.143097,479.868164 383.198456,480.205505 
	C396.085052,481.628326 408.965424,483.107452 421.852234,484.528198 
	C424.493103,484.819336 427.151886,484.947998 430.193634,485.252991 
z"/>
<path fill="#D1BB67" opacity="1.000000" stroke="none" 
	d="
M291.982391,483.927917 
	C294.003967,483.786469 296.025543,483.645050 298.763428,483.521179 
	C300.310211,483.329437 301.140747,483.120178 301.971252,482.910919 
	C312.559357,481.957184 323.138153,480.878174 333.738831,480.094116 
	C340.684540,479.580383 341.322754,480.290161 338.946320,486.865509 
	C335.788361,495.603363 332.268646,504.223999 328.552704,512.741638 
	C326.283264,517.943726 324.673553,518.255493 320.361053,514.882141 
	C308.716766,505.773590 297.166077,496.545319 285.333252,486.936584 
	C285.088226,486.508606 285.043060,486.035889 285.043060,486.035889 
	C285.043060,486.035889 285.006744,485.996887 285.388580,485.957336 
	C287.841095,485.254486 289.911743,484.591217 291.982391,483.927917 
z"/>
<path fill="#162849" opacity="1.000000" stroke="none" 
	d="
M277.597412,576.689087 
	C283.498413,573.844666 285.232605,574.335266 288.916168,579.278381 
	C290.592285,581.527649 292.628632,583.530701 294.130798,585.882263 
	C296.406982,589.445496 294.949005,591.510803 290.777130,592.066467 
	C282.928314,593.112000 275.677185,584.786865 277.597412,576.689087 
z"/>
<path fill="#162849" opacity="1.000000" stroke="none" 
	d="
M255.629761,590.807556 
	C254.861725,591.119507 254.171738,591.127869 253.481750,591.136292 
	C253.635040,590.570007 253.788330,590.003723 253.941620,589.437439 
	C254.530350,589.792969 255.119080,590.148499 255.629761,590.807556 
z"/>
<path fill="#403E57" opacity="1.000000" stroke="none" 
	d="
M301.744080,482.691711 
	C301.140747,483.120178 300.310211,483.329437 299.176514,483.391785 
	C298.873383,482.988892 298.912598,482.739014 299.018372,482.308960 
	C299.869507,482.239288 300.693207,482.355927 301.744080,482.691711 
z"/>
<path fill="#403E57" opacity="1.000000" stroke="none" 
	d="
M284.752319,485.996002 
	C285.043060,486.035889 285.088226,486.508606 285.062439,486.744446 
	C284.728638,486.812714 284.420624,486.645142 283.994080,486.232056 
	C284.070892,485.976379 284.266266,485.966248 284.752319,485.996002 
z"/>
<path fill="#403E57" opacity="1.000000" stroke="none" 
	d="
M291.807556,483.646790 
	C289.911743,484.591217 287.841095,485.254486 285.401489,485.979309 
	C286.729095,483.906891 288.064972,480.883057 291.807556,483.646790 
z"/>
</svg>