<svg version="1.1" id="Layer_1" xmlns="http://www.w3.org/2000/svg" xmlns:xlink="http://www.w3.org/1999/xlink" x="0px" y="0px"
	 width="100%" viewBox="0 0 1041 554" enable-background="new 0 0 1041 554" xml:space="preserve">
<path fill="#FFFFFF" opacity="1.000000" stroke="none" 
	d="
M1.000002,333.000000 
	C1.000000,222.375198 1.000000,111.750397 1.000000,1.000000 
	C262.359161,1.000000 523.718323,1.000000 785.451599,1.394804 
	C782.509766,2.208295 779.193054,2.621163 775.877991,3.046664 
	C760.389587,5.034678 744.866272,6.789850 729.425781,9.098298 
	C718.877686,10.675300 708.445251,13.026046 697.548767,15.021294 
	C693.756042,15.673513 690.375732,16.335297 686.594971,17.004009 
	C657.386719,24.015778 628.617310,31.184248 599.760071,37.979305 
	C571.083618,44.731777 542.478882,51.969818 513.537170,57.351997 
	C493.770966,61.027840 473.498505,62.085609 453.414703,63.895344 
	C445.974548,64.565765 438.426697,64.041168 430.474518,64.048546 
	C426.679230,64.022636 423.337372,64.009758 419.574890,63.985073 
	C410.295105,62.957455 401.372864,62.320305 392.588257,60.857117 
	C362.347168,55.820068 333.238037,46.954441 305.547302,33.740749 
	C282.086121,22.545370 257.728210,17.880444 231.690216,20.833038 
	C207.080215,23.623705 184.812485,32.215576 163.634552,45.212357 
	C161.501556,46.486469 159.640442,47.570709 157.845520,48.755207 
	C135.978073,63.185787 117.056786,80.930122 99.998711,100.692207 
	C95.289612,106.147781 91.289749,112.215553 86.663376,118.153015 
	C75.223602,135.576157 63.187706,152.345505 53.152920,170.237198 
	C37.422146,198.284653 25.627167,228.140228 16.845995,259.125427 
	C10.927421,280.009674 6.086310,301.106842 3.881202,322.761932 
	C3.527405,326.236389 1.990161,329.590332 1.000002,333.000000 
z"/>
<path fill="#F2F2F2" opacity="1.000000" stroke="none" 
	d="
M697.961121,15.030863 
	C708.445251,13.026046 718.877686,10.675300 729.425781,9.098298 
	C744.866272,6.789850 760.389587,5.034678 775.877991,3.046664 
	C779.193054,2.621163 782.509766,2.208295 785.912842,1.394804 
	C813.020874,1.000000 840.041809,1.000000 867.618530,1.394804 
	C871.665405,2.232261 875.156860,2.672511 878.647583,3.118004 
	C891.403137,4.745872 904.239075,5.917264 916.890198,8.139928 
	C928.363953,10.155742 939.636353,13.317517 950.999268,16.445591 
	C951.001404,45.061508 950.925903,73.206329 951.085754,101.349800 
	C951.109192,105.476997 950.390564,107.117760 945.705872,107.108963 
	C864.936768,106.957161 784.167236,106.961205 703.398132,107.102180 
	C698.885437,107.110054 697.863525,105.773132 697.889893,101.461647 
	C698.066040,72.652321 697.969238,43.841324 697.961121,15.030863 
z"/>
<path fill="#FEFEFF" opacity="1.000000" stroke="none" 
	d="
M1042.000000,189.000000 
	C1042.000000,310.958893 1042.000000,432.917816 1042.000000,555.000000 
	C749.306458,555.000000 456.612946,555.000000 163.659897,554.612793 
	C163.726700,554.164429 164.052536,554.052368 164.379379,554.049316 
	C226.571091,553.462769 288.762848,552.884033 351.397308,552.487427 
	C444.897736,551.742981 537.955444,550.817444 631.013000,549.871277 
	C631.989441,549.861267 632.963135,549.579468 634.401794,549.520752 
	C710.133301,548.973083 785.401123,548.332092 860.668701,547.658142 
	C861.784302,547.648132 862.896301,547.229248 864.451538,547.000488 
	C869.797974,546.305603 874.801575,546.016052 879.590393,544.846863 
	C899.508911,539.983459 915.468140,529.301697 925.750061,511.309753 
	C931.934937,500.487213 937.320557,489.203644 942.940430,478.064270 
	C945.769836,472.456116 948.320740,466.707520 951.281494,460.827698 
	C955.079041,452.437744 958.592651,444.242554 962.449707,435.972992 
	C963.405212,435.152588 964.227234,434.498077 964.598267,433.646942 
	C972.085266,416.469910 979.771240,399.373718 986.914856,382.054108 
	C1002.729736,343.711151 1016.623474,304.697540 1026.727905,264.413330 
	C1032.721924,240.516342 1037.955078,216.480148 1040.079834,191.865005 
	C1040.166504,190.862228 1041.335327,189.952881 1042.000000,189.000000 
z"/>
<path fill="#F2F2F2" opacity="1.000000" stroke="none" 
	d="
M1.000002,333.468658 
	C1.990161,329.590332 3.527405,326.236389 3.881202,322.761932 
	C6.086310,301.106842 10.927421,280.009674 16.845995,259.125427 
	C25.627167,228.140228 37.422146,198.284653 53.152920,170.237198 
	C63.187706,152.345505 75.223602,135.576157 87.117180,118.152100 
	C90.122818,118.103226 92.373543,118.205849 94.998116,118.325523 
	C94.998116,120.360138 94.998116,121.834061 94.998116,123.307983 
	C94.998116,229.062729 94.969635,334.817505 95.097099,440.572083 
	C95.102470,445.030792 93.860619,446.153076 89.492546,446.121033 
	C63.680038,445.931702 37.865295,446.047028 11.893375,445.710571 
	C8.821383,430.190002 5.934668,415.013306 2.933371,399.859283 
	C2.727414,398.819305 1.664430,397.949127 1.000004,397.000000 
	C1.000000,375.979095 1.000000,354.958221 1.000002,333.468658 
z"/>
<path fill="#F2F2F2" opacity="1.000000" stroke="none" 
	d="
M1042.000000,188.531342 
	C1041.335327,189.952881 1040.166504,190.862228 1040.079834,191.865005 
	C1037.955078,216.480148 1032.721924,240.516342 1026.727905,264.413330 
	C1016.623474,304.697540 1002.729736,343.711151 986.914856,382.054108 
	C979.771240,399.373718 972.085266,416.469910 964.598267,433.646942 
	C964.227234,434.498077 963.405212,435.152588 962.413208,435.500244 
	C962.024597,331.181274 962.048218,227.260635 961.900757,123.340233 
	C961.894226,118.707047 963.439636,117.888695 967.624268,117.921013 
	C991.104919,118.102333 1014.587769,118.004982 1038.343994,118.282745 
	C1038.756714,119.690842 1038.761841,120.855385 1039.058472,121.940216 
	C1039.979492,125.309738 1041.011230,128.649002 1042.000000,132.000000 
	C1042.000000,150.687561 1042.000000,169.375122 1042.000000,188.531342 
z"/>
<path fill="#FFFFFF" opacity="1.000000" stroke="none" 
	d="
M1042.000000,131.531342 
	C1041.011230,128.649002 1039.979492,125.309738 1039.058472,121.940216 
	C1038.761841,120.855385 1038.756714,119.690842 1038.331055,117.863075 
	C1037.360229,113.778954 1036.676880,110.394508 1035.952637,106.624817 
	C1032.560669,96.737617 1029.976440,86.872910 1025.692261,77.812012 
	C1017.669373,60.843567 1006.003235,46.324032 990.651733,35.505978 
	C981.845764,29.300486 971.641724,25.078941 961.838257,19.690702 
	C958.072144,18.269440 954.534851,17.121740 950.997559,15.974047 
	C939.636353,13.317517 928.363953,10.155742 916.890198,8.139928 
	C904.239075,5.917264 891.403137,4.745872 878.647583,3.118004 
	C875.156860,2.672511 871.665405,2.232261 868.087158,1.394804 
	C925.916687,1.000000 983.833435,1.000000 1042.000000,1.000000 
	C1042.000000,44.353909 1042.000000,87.708298 1042.000000,131.531342 
z"/>
<path fill="#FFFFFF" opacity="1.000000" stroke="none" 
	d="
M1.000004,397.468658 
	C1.664430,397.949127 2.727414,398.819305 2.933371,399.859283 
	C5.934668,415.013306 8.821383,430.190002 11.890388,446.091644 
	C13.344631,450.253143 14.643929,453.684265 15.967383,457.493774 
	C17.609863,462.212616 19.033579,466.637817 20.878527,470.879761 
	C31.773375,495.929260 45.712147,518.918823 67.128769,536.493958 
	C75.225655,543.138489 84.097427,548.721008 95.103851,550.364136 
	C99.149284,551.801575 103.003471,552.920410 106.922211,554.275085 
	C106.986755,554.510986 107.000000,555.000000 107.000000,555.000000 
	C71.725304,555.000000 36.450607,555.000000 1.000000,555.000000 
	C1.000000,502.645905 1.000000,450.291595 1.000004,397.468658 
z"/>
<path fill="#4B485C" opacity="1.000000" stroke="none" 
	d="
M107.468658,555.000000 
	C107.000000,555.000000 106.986755,554.510986 106.989166,553.811340 
	C106.996635,550.020081 106.818497,546.912903 107.079224,543.843018 
	C107.222977,542.150452 108.103775,540.520386 109.146942,538.904785 
	C174.421463,538.631592 239.201248,538.302002 303.981201,538.009827 
	C319.645020,537.939209 335.309387,537.991699 350.981018,538.454346 
	C350.977264,543.382385 350.965942,547.843689 350.954620,552.304993 
	C288.762848,552.884033 226.571091,553.462769 164.379379,554.049316 
	C164.052536,554.052368 163.726700,554.164429 163.200195,554.612793 
	C144.645767,555.000000 126.291542,555.000000 107.468658,555.000000 
z"/>
<path fill="#DADADA" opacity="1.000000" stroke="none" 
	d="
M108.652298,538.862183 
	C108.103775,540.520386 107.222977,542.150452 107.079224,543.843018 
	C106.818497,546.912903 106.996635,550.020081 106.924622,553.575439 
	C103.003471,552.920410 99.149284,551.801575 95.135277,549.891235 
	C94.982735,520.609314 94.993217,492.118896 94.994705,463.628479 
	C94.995018,457.693085 94.505241,457.059387 88.416275,457.050232 
	C64.258682,457.013885 40.100929,457.084473 15.943231,457.115417 
	C14.643929,453.684265 13.344631,450.253143 12.048320,446.440918 
	C37.865295,446.047028 63.680038,445.931702 89.492546,446.121033 
	C93.860619,446.153076 95.102470,445.030792 95.097099,440.572083 
	C94.969635,334.817505 94.998116,229.062729 94.998116,123.307983 
	C94.998116,121.834061 94.998116,120.360138 94.998116,118.325523 
	C92.373543,118.205849 90.122818,118.103226 87.418274,118.001511 
	C91.289749,112.215553 95.289612,106.147781 99.998711,100.692207 
	C117.056786,80.930122 135.978073,63.185787 157.845520,48.755207 
	C159.640442,47.570709 161.501556,46.486469 163.654160,45.672966 
	C163.983444,64.801918 164.055618,83.613953 163.936844,102.424782 
	C163.915710,105.771454 164.737488,107.073158 168.367065,107.069153 
	C250.772324,106.978195 333.177734,106.978966 415.583008,107.067482 
	C419.171234,107.071335 420.088654,105.842766 420.047516,102.451897 
	C419.892120,89.635239 419.991516,76.815475 419.995544,63.996880 
	C423.337372,64.009758 426.679230,64.022636 430.495605,64.510117 
	C430.976959,77.138512 431.163483,89.296303 430.893646,101.443954 
	C430.798370,105.734123 431.842926,107.111435 436.382385,107.103531 
	C518.129456,106.961159 599.876953,106.959915 681.624023,107.105629 
	C686.218689,107.113823 687.096008,105.630737 687.070618,101.407669 
	C686.901672,73.271675 686.990417,45.134129 686.995361,16.997084 
	C690.375732,16.335297 693.756042,15.673513 697.548767,15.021297 
	C697.969238,43.841324 698.066040,72.652321 697.889893,101.461647 
	C697.863525,105.773132 698.885437,107.110054 703.398132,107.102180 
	C784.167236,106.961205 864.936768,106.957161 945.705872,107.108963 
	C950.390564,107.117760 951.109192,105.476997 951.085754,101.349800 
	C950.925903,73.206329 951.001404,45.061508 950.999268,16.445583 
	C954.534851,17.121740 958.072144,18.269440 961.817017,20.162943 
	C962.019714,47.844372 962.093445,74.780487 961.925171,101.715096 
	C961.899841,105.768799 962.911316,107.130920 967.158630,107.094559 
	C990.102112,106.898117 1013.048218,107.006660 1035.993408,107.010056 
	C1036.676880,110.394508 1037.360229,113.778954 1038.056763,117.583076 
	C1014.587769,118.004982 991.104919,118.102333 967.624268,117.921013 
	C963.439636,117.888695 961.894226,118.707047 961.900757,123.340233 
	C962.048218,227.260635 962.024597,331.181274 962.069824,435.574615 
	C958.592651,444.242554 955.079041,452.437744 951.281494,460.402954 
	C951.275574,456.309296 948.457764,457.033508 946.240112,457.033142 
	C893.929749,457.024872 841.619324,457.036133 789.218506,456.589600 
	C789.165527,452.743500 789.203003,449.351593 789.693848,445.974304 
	C841.979614,445.999725 893.812317,445.947937 945.644104,446.129272 
	C950.253235,446.145386 951.089233,444.632782 951.084900,440.417450 
	C950.976746,334.752380 950.970459,229.087128 951.101624,123.422104 
	C951.107178,118.917572 949.795715,117.900856 945.470093,117.907608 
	C864.804749,118.033546 784.139038,118.035637 703.473755,117.903419 
	C699.072876,117.896210 697.875610,119.040520 697.886658,123.470001 
	C698.040161,185.302048 698.000732,247.134598 697.553284,309.035156 
	C693.724670,309.037415 690.351074,308.971497 686.977722,308.442871 
	C686.978760,246.528519 686.941772,185.076782 687.064026,123.625381 
	C687.072327,119.454994 686.299255,117.883888 681.655579,117.892319 
	C599.886841,118.040810 518.117737,118.039841 436.348999,117.893867 
	C431.752472,117.885666 430.897461,119.372307 430.906555,123.591972 
	C431.039551,185.376358 431.007019,247.161118 430.558289,309.012268 
	C426.727264,309.020691 423.351898,308.962585 419.978271,308.441833 
	C419.981415,246.837173 419.983215,185.695190 419.983459,124.553215 
	C419.983490,118.006256 419.979218,118.000916 413.585571,118.000816 
	C332.618225,117.999580 251.650894,117.999733 170.683548,118.000496 
	C164.000275,118.000557 163.997421,118.003815 163.997391,124.762192 
	C163.996780,229.886459 163.996948,335.010742 163.996948,440.135010 
	C163.996948,440.634796 164.059235,441.143768 163.987198,441.632965 
	C163.399277,445.626373 164.765182,447.413635 169.116043,447.057922 
	C173.584854,446.692627 178.105820,446.965302 182.706177,447.407196 
	C182.741409,450.916870 182.674408,453.978149 182.163544,457.039429 
	C177.399841,457.032501 173.065948,457.238068 168.764420,456.953979 
	C165.084549,456.710907 163.870438,457.899994 163.913803,461.689880 
	C164.102005,478.136536 163.992569,494.586609 163.548035,511.123627 
	C159.516022,511.566650 155.299744,510.825348 152.443878,512.460327 
	C137.655304,520.926636 123.214386,530.000244 108.652298,538.862183 
z"/>
<path fill="#F2F2F2" opacity="1.000000" stroke="none" 
	d="
M419.574890,63.985073 
	C419.991516,76.815475 419.892120,89.635239 420.047516,102.451897 
	C420.088654,105.842766 419.171234,107.071335 415.583008,107.067482 
	C333.177734,106.978966 250.772324,106.978195 168.367065,107.069153 
	C164.737488,107.073158 163.915710,105.771454 163.936844,102.424782 
	C164.055618,83.613953 163.983444,64.801918 163.956787,45.529686 
	C184.812485,32.215576 207.080215,23.623705 231.690216,20.833038 
	C257.728210,17.880444 282.086121,22.545370 305.547302,33.740749 
	C333.238037,46.954441 362.347168,55.820068 392.588257,60.857117 
	C401.372864,62.320305 410.295105,62.957455 419.574890,63.985073 
z"/>
<path fill="#F2F2F2" opacity="1.000000" stroke="none" 
	d="
M686.594971,17.004013 
	C686.990417,45.134129 686.901672,73.271675 687.070618,101.407669 
	C687.096008,105.630737 686.218689,107.113823 681.624023,107.105629 
	C599.876953,106.959915 518.129456,106.961159 436.382385,107.103531 
	C431.842926,107.111435 430.798370,105.734123 430.893646,101.443954 
	C431.163483,89.296303 430.976959,77.138512 430.949066,64.523148 
	C438.426697,64.041168 445.974548,64.565765 453.414703,63.895344 
	C473.498505,62.085609 493.770966,61.027840 513.537170,57.351997 
	C542.478882,51.969818 571.083618,44.731777 599.760071,37.979305 
	C628.617310,31.184248 657.386719,24.015778 686.594971,17.004013 
z"/>
<path fill="#39374D" opacity="1.000000" stroke="none" 
	d="
M351.397308,552.487427 
	C350.965942,547.843689 350.977264,543.382385 350.990479,537.988403 
	C351.283112,527.956665 351.573883,518.857605 351.914307,509.310425 
	C352.326019,501.575623 352.688019,494.288940 353.432709,486.955872 
	C357.519653,486.285461 361.260956,484.968506 364.921478,485.163971 
	C377.132416,485.816071 389.302551,487.206512 401.510620,487.945770 
	C416.064789,488.827087 430.637665,489.454834 445.210510,489.958130 
	C459.648346,490.456787 474.095795,490.895813 488.539948,490.926117 
	C500.318604,490.950836 512.097961,490.307129 523.878235,490.008209 
	C538.154480,489.645996 552.440186,489.535309 566.707031,488.952850 
	C586.567261,488.142029 606.412476,486.967499 626.267395,486.016083 
	C629.836121,485.845062 633.420471,485.999939 637.325562,486.047607 
	C637.874023,486.088867 638.094482,486.086853 638.177917,486.512817 
	C637.756897,493.844604 637.472961,500.748444 637.094727,508.083679 
	C636.336060,517.676697 635.671692,526.838379 634.713257,536.289978 
	C634.258850,540.861450 634.098511,545.143005 633.938110,549.424500 
	C632.963135,549.579468 631.989441,549.861267 631.013000,549.871277 
	C537.955444,550.817444 444.897736,551.742981 351.397308,552.487427 
z"/>
<path fill="#F2F2F2" opacity="1.000000" stroke="none" 
	d="
M789.308960,457.043823 
	C841.619324,457.036133 893.929749,457.024872 946.240112,457.033142 
	C948.457764,457.033508 951.275574,456.309296 950.997559,460.597717 
	C948.320740,466.707520 945.769836,472.456116 942.940430,478.064270 
	C937.320557,489.203644 931.934937,500.487213 925.750061,511.309753 
	C915.468140,529.301697 899.508911,539.983459 879.590393,544.846863 
	C874.801575,546.016052 869.797974,546.305603 864.422241,546.540161 
	C863.947754,543.145264 864.164490,540.185242 863.837463,537.286499 
	C863.697266,536.043701 862.426208,534.928528 861.428467,533.471680 
	C846.992859,525.950867 832.676270,518.939087 818.652954,511.383026 
	C811.442627,507.497925 804.246704,505.627594 795.949829,505.879272 
	C773.690918,506.554443 751.410095,506.503113 729.084412,506.292664 
	C729.038513,500.233521 729.046143,494.622070 729.518555,489.007019 
	C748.334900,489.378662 766.686462,489.753845 785.440186,490.168945 
	C786.919556,488.261230 788.840027,486.351440 788.929382,484.359528 
	C789.336975,475.266876 789.230591,466.151215 789.308960,457.043823 
z"/>
<path fill="#4B485C" opacity="1.000000" stroke="none" 
	d="
M861.668945,533.755371 
	C862.426208,534.928528 863.697266,536.043701 863.837463,537.286499 
	C864.164490,540.185242 863.947754,543.145264 863.980591,546.540894 
	C862.896301,547.229248 861.784302,547.648132 860.668701,547.658142 
	C785.401123,548.332092 710.133301,548.973083 634.401794,549.520752 
	C634.098511,545.143005 634.258850,540.861450 635.181091,536.289185 
	C671.066162,535.665649 706.188843,535.246033 741.312744,535.029480 
	C766.144531,534.876404 790.979187,535.144104 815.810303,534.943665 
	C831.098694,534.820312 846.382874,534.169434 861.668945,533.755371 
z"/>
<path fill="#F2F2F2" opacity="1.000000" stroke="none" 
	d="
M1035.952637,106.624817 
	C1013.048218,107.006660 990.102112,106.898117 967.158630,107.094559 
	C962.911316,107.130920 961.899841,105.768799 961.925171,101.715096 
	C962.093445,74.780487 962.019714,47.844372 962.045837,20.436506 
	C971.641724,25.078941 981.845764,29.300486 990.651733,35.505978 
	C1006.003235,46.324032 1017.669373,60.843567 1025.692261,77.812012 
	C1029.976440,86.872910 1032.560669,96.737617 1035.952637,106.624817 
z"/>
<path fill="#F2F2F2" opacity="1.000000" stroke="none" 
	d="
M15.967387,457.493774 
	C40.100929,457.084473 64.258682,457.013885 88.416275,457.050232 
	C94.505241,457.059387 94.995018,457.693085 94.994705,463.628479 
	C94.993217,492.118896 94.982735,520.609314 94.944031,549.572632 
	C84.097427,548.721008 75.225655,543.138489 67.128769,536.493958 
	C45.712147,518.918823 31.773375,495.929260 20.878527,470.879761 
	C19.033579,466.637817 17.609863,462.212616 15.967387,457.493774 
z"/>
<path fill="#524F64" opacity="1.000000" stroke="none" 
	d="
M351.864624,509.758575 
	C351.573883,518.857605 351.283112,527.956665 350.982910,537.521606 
	C335.309387,537.991699 319.645020,537.939209 303.981201,538.009827 
	C239.201248,538.302002 174.421463,538.631592 109.146950,538.904785 
	C123.214386,530.000244 137.655304,520.926636 152.443878,512.460327 
	C155.299744,510.825348 159.516022,511.566650 164.010315,511.213257 
	C192.247604,511.081146 219.579346,510.947601 246.936295,511.271973 
	C247.057022,513.653259 247.152512,515.576721 247.272690,517.997437 
	C249.533173,517.997437 251.320389,518.034485 253.105698,517.991516 
	C266.476715,517.669861 279.846191,517.270752 293.218536,517.024292 
	C300.662781,516.887085 300.664825,516.998108 301.681580,509.742432 
	C318.693329,509.858429 335.278992,509.808502 351.864624,509.758575 
z"/>
<path fill="#F2F2F2" opacity="1.000000" stroke="none" 
	d="
M698.008301,308.967010 
	C698.000732,247.134598 698.040161,185.302048 697.886658,123.470001 
	C697.875610,119.040520 699.072876,117.896210 703.473755,117.903419 
	C784.139038,118.035637 864.804749,118.033546 945.470093,117.907608 
	C949.795715,117.900856 951.107178,118.917572 951.101624,123.422104 
	C950.970459,229.087128 950.976746,334.752380 951.084900,440.417450 
	C951.089233,444.632782 950.253235,446.145386 945.644104,446.129272 
	C893.812317,445.947937 841.979614,445.999725 789.627686,445.512482 
	C789.098267,432.244415 789.081421,419.452789 789.079712,406.661133 
	C789.075684,376.426056 789.079468,346.191010 789.078308,315.955933 
	C789.078186,312.941681 789.413025,309.711945 784.565063,309.309265 
	C781.120544,309.183380 778.134521,309.152313 775.148438,309.145142 
	C749.435059,309.083313 723.721680,309.025787 698.008301,308.967010 
z"/>
<path fill="#F2F2F2" opacity="1.000000" stroke="none" 
	d="
M182.603973,446.958801 
	C178.105820,446.965302 173.584854,446.692627 169.116043,447.057922 
	C164.765182,447.413635 163.399277,445.626373 163.987198,441.632965 
	C164.059235,441.143768 163.996948,440.634796 163.996948,440.135010 
	C163.996948,335.010742 163.996780,229.886459 163.997391,124.762192 
	C163.997421,118.003815 164.000275,118.000557 170.683548,118.000496 
	C251.650894,117.999733 332.618225,117.999580 413.585571,118.000816 
	C419.979218,118.000916 419.983490,118.006256 419.983459,124.553215 
	C419.983215,185.695190 419.981415,246.837173 419.517395,308.524292 
	C409.747009,309.089966 400.438843,309.173309 391.131836,309.102844 
	C386.904877,309.070831 385.097137,311.050476 385.106415,315.170410 
	C385.177368,346.750183 385.210846,378.330078 385.179718,410.360382 
	C384.152802,416.815094 383.202148,422.819305 382.219849,428.367310 
	C382.171875,390.961639 382.156189,354.012207 382.138672,317.062775 
	C382.135162,309.639740 381.646210,309.145599 374.180664,309.145233 
	C313.430023,309.142151 252.679398,309.141327 191.928772,309.154633 
	C190.272659,309.154999 188.616577,309.322327 186.594940,309.361267 
	C182.507355,310.307312 182.857269,313.293976 182.857773,316.143494 
	C182.865112,357.425293 182.867126,398.707062 182.851974,439.988861 
	C182.851120,442.312195 182.690323,444.635498 182.603973,446.958801 
z"/>
<path fill="#F2F2F2" opacity="1.000000" stroke="none" 
	d="
M431.013916,308.945770 
	C431.007019,247.161118 431.039551,185.376358 430.906555,123.591972 
	C430.897461,119.372307 431.752472,117.885666 436.348999,117.893867 
	C518.117737,118.039841 599.886841,118.040810 681.655579,117.892319 
	C686.299255,117.883888 687.072327,119.454994 687.064026,123.625381 
	C686.941772,185.076782 686.978760,246.528519 686.517090,308.527863 
	C656.632385,309.098541 627.208557,309.120209 597.784668,309.145355 
	C590.259216,309.151764 589.771667,309.631622 589.763245,316.983734 
	C589.727905,347.737061 589.693542,378.490387 589.457153,408.949463 
	C587.737915,405.418854 586.220337,402.182465 584.747009,398.480713 
	C584.802246,385.563232 584.818237,373.111145 584.822937,360.659058 
	C584.828613,345.882416 584.841492,331.105774 584.816589,316.329163 
	C584.806396,310.290924 583.621338,309.179840 577.483093,309.119537 
	C574.331848,309.088562 571.181030,309.009521 567.985352,308.533142 
	C567.019958,303.062836 567.024902,297.602081 565.005798,293.036560 
	C558.783569,278.967346 552.203552,265.017029 544.929016,251.468018 
	C540.902039,243.967682 533.924133,238.987946 525.400269,237.047928 
	C512.287842,234.063614 499.120148,231.317047 485.952179,228.583954 
	C475.864807,226.490265 467.143738,229.385223 460.000763,236.631409 
	C455.104767,241.598175 450.838745,247.194489 445.861145,252.070404 
	C437.481964,260.278442 434.440643,269.342651 439.861908,280.364044 
	C440.215790,281.083527 440.201447,281.984131 440.020416,283.016937 
	C436.181030,291.695343 436.401428,300.413788 437.462708,309.188721 
	C435.027283,309.087036 433.020599,309.016388 431.013916,308.945770 
z"/>
<path fill="#66627D" opacity="1.000000" stroke="none" 
	d="
M589.658813,409.243713 
	C589.693542,378.490387 589.727905,347.737061 589.763245,316.983734 
	C589.771667,309.631622 590.259216,309.151764 597.784668,309.145355 
	C627.208557,309.120209 656.632385,309.098541 686.516846,308.990570 
	C690.351074,308.971497 693.724670,309.037415 697.553284,309.035156 
	C723.721680,309.025787 749.435059,309.083313 775.148438,309.145142 
	C778.134521,309.152313 781.120544,309.183380 784.561768,309.749054 
	C785.023987,370.239502 785.031067,430.184235 785.038086,490.128998 
	C766.686462,489.753845 748.334900,489.378662 729.047546,489.004700 
	C712.011597,488.683441 695.911438,488.360962 679.417603,487.946106 
	C675.555237,487.630829 672.089294,487.337341 668.617126,487.198334 
	C658.517761,486.794067 648.415894,486.451538 638.315002,486.084808 
	C638.094482,486.086853 637.874023,486.088867 637.344177,485.672791 
	C637.022400,484.504425 637.009949,483.754150 637.000122,482.619202 
	C636.113037,477.115601 632.760986,473.963837 627.566772,474.057739 
	C620.969666,474.176941 614.380249,474.716858 607.598694,475.057343 
	C607.409912,475.039307 607.037903,474.964996 607.033325,474.578369 
	C606.646973,472.173615 606.265137,470.155487 606.330566,468.115234 
	C609.743225,468.378235 612.704102,468.841064 615.674988,468.918793 
	C630.965820,469.318726 646.259399,469.613098 661.551758,469.957306 
	C675.845154,470.279022 690.137024,470.672028 704.431458,470.934998 
	C726.386108,471.338928 748.345276,471.542542 770.295410,472.108612 
	C774.852600,472.226105 776.178345,471.002777 776.161133,466.342133 
	C775.987549,419.367950 776.057983,372.392853 776.043701,325.418030 
	C776.043213,323.804138 775.872742,322.190277 775.772888,320.424866 
	C716.719788,320.424866 658.055542,320.424866 598.993408,320.424866 
	C598.993408,322.822845 598.996094,324.800598 598.992981,326.778381 
	C598.933350,364.921265 598.872986,403.064117 598.578735,440.914673 
	C595.449402,430.162781 592.554077,419.703247 589.658813,409.243713 
z"/>
<path fill="#F1F1F1" opacity="1.000000" stroke="none" 
	d="
M246.911072,510.814087 
	C219.579346,510.947601 192.247604,511.081146 164.453613,511.125061 
	C163.992569,494.586609 164.102005,478.136536 163.913803,461.689880 
	C163.870438,457.899994 165.084549,456.710907 168.764420,456.953979 
	C173.065948,457.238068 177.399841,457.032501 182.259125,457.497040 
	C182.826416,466.910492 182.844284,475.866333 182.888016,484.822052 
	C182.901688,487.622803 183.086411,490.344147 187.476700,490.205444 
	C208.580627,489.870514 229.223236,489.449310 249.876175,489.494598 
	C249.888031,492.438965 249.968262,494.919830 249.874146,497.394073 
	C249.697525,502.037720 251.205856,507.074127 246.911072,510.814087 
z"/>
<path fill="#696580" opacity="1.000000" stroke="none" 
	d="
M430.558289,309.012268 
	C433.020599,309.016388 435.027283,309.087036 437.496246,309.559875 
	C438.971893,313.300720 439.985260,316.639374 440.530396,319.985962 
	C427.617432,319.995758 415.170624,320.125854 402.729340,319.920502 
	C399.042694,319.859680 397.874084,320.904266 397.917450,324.669159 
	C398.110474,341.425842 398.009552,358.185913 397.867676,375.249268 
	C392.496552,380.573761 389.574219,386.859772 388.076324,393.801788 
	C386.927521,399.126129 386.181274,404.537354 385.255981,409.909912 
	C385.210846,378.330078 385.177368,346.750183 385.106415,315.170410 
	C385.097137,311.050476 386.904877,309.070831 391.131836,309.102844 
	C400.438843,309.173309 409.747009,309.089966 419.515625,308.986938 
	C423.351898,308.962585 426.727264,309.020691 430.558289,309.012268 
z"/>
<path fill="#5B5871" opacity="1.000000" stroke="none" 
	d="
M187.015381,490.119141 
	C183.086411,490.344147 182.901688,487.622803 182.888016,484.822052 
	C182.844284,475.866333 182.826416,466.910492 182.702988,457.497070 
	C182.674408,453.978149 182.741409,450.916870 182.706177,447.407196 
	C182.690323,444.635498 182.851120,442.312195 182.851974,439.988861 
	C182.867126,398.707062 182.865112,357.425293 182.857773,316.143494 
	C182.857269,313.293976 182.507355,310.307312 186.603806,309.801208 
	C186.990585,370.234161 187.002991,430.176666 187.015381,490.119141 
z"/>
<path fill="#5B5871" opacity="1.000000" stroke="none" 
	d="
M785.440186,490.168945 
	C785.031067,430.184235 785.023987,370.239502 785.020264,309.854950 
	C789.413025,309.711945 789.078186,312.941681 789.078308,315.955933 
	C789.079468,346.191010 789.075684,376.426056 789.079712,406.661133 
	C789.081421,419.452789 789.098267,432.244415 789.174316,445.497864 
	C789.203003,449.351593 789.165527,452.743500 789.218506,456.589600 
	C789.230591,466.151215 789.336975,475.266876 788.929382,484.359528 
	C788.840027,486.351440 786.919556,488.261230 785.440186,490.168945 
z"/>
<path fill="#403D56" opacity="1.000000" stroke="none" 
	d="
M636.997559,483.003906 
	C637.009949,483.754150 637.022400,484.504425 637.016235,485.629517 
	C633.420471,485.999939 629.836121,485.845062 626.267395,486.016083 
	C606.412476,486.967499 586.567261,488.142029 566.707031,488.952850 
	C552.440186,489.535309 538.154480,489.645996 523.878235,490.008209 
	C512.097961,490.307129 500.318604,490.950836 488.539948,490.926117 
	C474.095795,490.895813 459.648346,490.456787 445.210510,489.958130 
	C430.637665,489.454834 416.064789,488.827087 401.510620,487.945770 
	C389.302551,487.206512 377.132416,485.816071 364.921478,485.163971 
	C361.260956,484.968506 357.519653,486.285461 353.343201,486.776917 
	C352.871063,486.644348 352.843964,486.245117 352.910034,485.881195 
	C353.307831,484.342529 353.639587,483.167755 354.292419,481.846802 
	C357.879089,480.458893 361.066223,478.889679 364.435944,478.083221 
	C366.955414,477.480255 369.710358,477.861206 372.746429,477.908234 
	C377.921295,478.414246 382.703003,478.985291 387.500305,479.190521 
	C419.148010,480.544342 450.800262,481.791046 482.447144,483.163422 
	C485.676239,483.303497 487.513641,482.212280 488.225342,478.740784 
	C493.975586,467.134979 497.386902,455.259766 498.079987,441.858826 
	C492.401001,448.234222 487.883209,454.510468 482.167145,459.380127 
	C476.590363,464.131195 470.217346,468.672058 463.406494,471.048828 
	C456.422028,473.486176 448.499573,473.710876 440.958008,473.943390 
	C433.350189,474.177948 426.309479,471.384521 419.202850,467.480072 
	C432.067108,461.254608 437.679565,450.969727 438.041260,437.954071 
	C438.312286,428.202057 436.936157,418.407990 437.129822,408.649231 
	C437.393066,395.387115 438.454102,382.140900 439.409729,368.610168 
	C443.119019,356.618164 446.591553,344.903839 450.335571,332.955627 
	C451.917297,329.313568 453.422394,325.965485 454.495819,322.484344 
	C456.513245,315.941803 456.661285,309.069061 451.453827,304.260284 
	C445.734650,298.978943 442.666260,292.916962 441.562012,285.486511 
	C441.423157,284.552216 440.772156,283.693970 440.358398,282.800476 
	C440.201447,281.984131 440.215790,281.083527 439.861908,280.364044 
	C434.440643,269.342651 437.481964,260.278442 445.861145,252.070404 
	C450.838745,247.194489 455.104767,241.598175 460.000763,236.631409 
	C467.143738,229.385223 475.864807,226.490265 485.952179,228.583954 
	C499.120148,231.317047 512.287842,234.063614 525.400269,237.047928 
	C533.924133,238.987946 540.902039,243.967682 544.929016,251.468018 
	C552.203552,265.017029 558.783569,278.967346 565.005798,293.036560 
	C567.024902,297.602081 567.019958,303.062836 567.963623,308.972900 
	C567.690369,313.229462 567.394226,316.627228 567.015625,320.391602 
	C564.862671,325.640015 562.529114,330.430725 560.799133,335.430298 
	C559.209534,340.023895 556.900085,344.970001 557.324951,349.535858 
	C558.255432,359.534607 560.717834,369.390778 562.589111,379.769165 
	C563.952515,385.880432 565.073181,391.586426 566.647583,397.164337 
	C572.251892,417.019257 568.215271,434.283295 554.267395,449.743652 
	C543.132812,462.085602 530.127075,471.416901 514.708435,478.160095 
	C510.204590,479.661774 506.072693,481.150146 501.940765,482.638550 
	C501.982025,483.129211 502.023254,483.619873 502.064484,484.110535 
	C533.035217,482.879700 564.007324,481.681549 594.975220,480.381287 
	C599.403809,480.195312 603.811768,479.515594 608.669495,479.052124 
	C612.229126,478.918396 615.415405,479.160858 618.454285,478.601807 
	C625.362366,477.330994 631.859802,477.114075 636.997559,483.003906 
z"/>
<path fill="#524F65" opacity="1.000000" stroke="none" 
	d="
M861.428467,533.471680 
	C846.382874,534.169434 831.098694,534.820312 815.810303,534.943665 
	C790.979187,535.144104 766.144531,534.876404 741.312744,535.029480 
	C706.188843,535.246033 671.066162,535.665649 635.475159,535.999207 
	C635.671692,526.838379 636.336060,517.676697 637.512939,508.023682 
	C651.970520,507.269165 665.915405,507.006012 679.889648,507.152771 
	C676.015991,517.755066 676.958374,519.358154 687.781799,519.129089 
	C700.880066,518.851807 713.998535,519.606812 727.109375,519.666687 
	C728.065857,519.671082 729.805542,517.690613 729.847290,516.582703 
	C729.970398,513.315491 729.422974,510.022980 729.137939,506.740356 
	C751.410095,506.503113 773.690918,506.554443 795.949829,505.879272 
	C804.246704,505.627594 811.442627,507.497925 818.652954,511.383026 
	C832.676270,518.939087 846.992859,525.950867 861.428467,533.471680 
z"/>
<path fill="#F0F0F0" opacity="1.000000" stroke="none" 
	d="
M352.843964,486.245117 
	C352.843964,486.245117 352.871063,486.644348 352.960571,486.823303 
	C352.688019,494.288940 352.326019,501.575623 351.914307,509.310425 
	C335.278992,509.808502 318.693329,509.858429 301.695648,509.346100 
	C300.521240,507.504578 299.136505,506.241241 299.103210,504.943268 
	C298.950439,498.989746 299.175629,493.026489 299.710510,487.141479 
	C317.718567,486.892548 335.281250,486.568817 352.843964,486.245117 
z"/>
<path fill="#F0F0F0" opacity="1.000000" stroke="none" 
	d="
M679.860352,506.742859 
	C665.915405,507.006012 651.970520,507.269165 637.607300,507.592285 
	C637.472961,500.748444 637.756897,493.844604 638.177917,486.512817 
	C648.415894,486.451538 658.517761,486.794067 668.617126,487.198334 
	C672.089294,487.337341 675.555237,487.630829 679.409729,488.411652 
	C679.817078,494.893982 679.838745,500.818420 679.860352,506.742859 
z"/>
<path fill="#3F3D55" opacity="1.000000" stroke="none" 
	d="
M679.889648,507.152771 
	C679.838745,500.818420 679.817078,494.893982 679.803345,488.504028 
	C695.911438,488.360962 712.011597,488.683441 728.582825,489.008270 
	C729.046143,494.622070 729.038513,500.233521 729.084412,506.292664 
	C729.422974,510.022980 729.970398,513.315491 729.847290,516.582703 
	C729.805542,517.690613 728.065857,519.671082 727.109375,519.666687 
	C713.998535,519.606812 700.880066,518.851807 687.781799,519.129089 
	C676.958374,519.358154 676.015991,517.755066 679.889648,507.152771 
z"/>
<path fill="#3F3D55" opacity="1.000000" stroke="none" 
	d="
M299.265137,487.066742 
	C299.175629,493.026489 298.950439,498.989746 299.103210,504.943268 
	C299.136505,506.241241 300.521240,507.504578 301.269531,509.180176 
	C300.664825,516.998108 300.662781,516.887085 293.218536,517.024292 
	C279.846191,517.270752 266.476715,517.669861 253.105698,517.991516 
	C251.320389,518.034485 249.533173,517.997437 247.272690,517.997437 
	C247.152512,515.576721 247.057022,513.653259 246.936295,511.271973 
	C251.205856,507.074127 249.697525,502.037720 249.874146,497.394073 
	C249.968262,494.919830 249.888031,492.438965 250.338394,489.466553 
	C266.948578,488.336914 283.106842,487.701813 299.265137,487.066742 
z"/>
<path fill="#66627D" opacity="1.000000" stroke="none" 
	d="
M299.710510,487.141479 
	C283.106842,487.701813 266.948578,488.336914 250.328064,489.000061 
	C229.223236,489.449310 208.580627,489.870514 187.476700,490.205444 
	C187.002991,430.176666 186.990585,370.234161 186.969330,309.851746 
	C188.616577,309.322327 190.272659,309.154999 191.928772,309.154633 
	C252.679398,309.141327 313.430023,309.142151 374.180664,309.145233 
	C381.646210,309.145599 382.135162,309.639740 382.138672,317.062775 
	C382.156189,354.012207 382.171875,390.961639 382.138611,428.767578 
	C379.086639,436.097443 376.084290,442.570831 373.043762,448.574829 
	C373.005585,405.608032 373.005585,363.110596 373.005585,319.869141 
	C360.294037,319.869141 348.212189,319.869141 336.109253,319.446106 
	C336.429840,316.168549 335.485321,314.779236 332.293488,314.949097 
	C327.536987,315.202271 322.760437,315.077942 317.525757,315.075439 
	C288.556732,315.036682 260.054382,315.036682 231.310043,315.036682 
	C231.156174,317.011047 231.042831,318.465424 230.465820,319.943176 
	C218.765106,319.966614 207.528076,319.966614 196.344330,319.966614 
	C196.125244,321.524078 195.953751,322.174927 195.953522,322.825836 
	C195.936630,371.266418 195.956741,419.707062 195.874817,468.147522 
	C195.869492,471.301453 197.057236,472.168030 199.994293,472.058380 
	C210.277267,471.674438 220.566208,471.450043 230.890213,471.576050 
	C230.687378,474.895355 232.530136,475.047150 234.731583,475.022217 
	C243.149490,474.927032 251.568390,474.919403 260.454529,474.922699 
	C285.873352,474.966309 310.824615,474.966309 335.893127,474.966309 
	C336.022369,472.496399 336.108429,470.851746 336.647369,469.149109 
	C348.145721,468.722321 359.191223,468.353455 370.449585,468.286377 
	C370.905273,470.324554 371.148102,472.060913 370.897095,473.861206 
	C367.436707,473.952728 364.461334,473.845428 361.505676,474.039032 
	C356.829285,474.345337 353.690369,477.764099 353.971313,481.993011 
	C353.639587,483.167755 353.307831,484.342529 352.910034,485.881195 
	C335.281250,486.568817 317.718567,486.892548 299.710510,487.141479 
z"/>
<path fill="#FE6584" opacity="1.000000" stroke="none" 
	d="
M371.390930,473.797302 
	C371.148102,472.060913 370.905273,470.324554 370.436523,467.827911 
	C371.167694,461.059845 372.124817,455.052032 373.081909,449.044220 
	C376.084290,442.570831 379.086639,436.097443 382.170258,429.223816 
	C383.202148,422.819305 384.152802,416.815094 385.179718,410.360382 
	C386.181274,404.537354 386.927521,399.126129 388.076324,393.801788 
	C389.574219,386.859772 392.496552,380.573761 398.188629,375.143921 
	C411.058990,365.140015 424.970276,366.004272 439.172943,368.887848 
	C438.454102,382.140900 437.393066,395.387115 437.129822,408.649231 
	C436.936157,418.407990 438.312286,428.202057 438.041260,437.954071 
	C437.679565,450.969727 432.067108,461.254608 419.202850,467.480072 
	C426.309479,471.384521 433.350189,474.177948 440.958008,473.943390 
	C448.499573,473.710876 456.422028,473.486176 463.406494,471.048828 
	C470.217346,468.672058 476.590363,464.131195 482.167145,459.380127 
	C487.883209,454.510468 492.401001,448.234222 498.079987,441.858826 
	C497.386902,455.259766 493.975586,467.134979 487.757874,478.745422 
	C466.815765,478.665833 446.565247,478.727783 426.353424,477.873871 
	C408.216644,477.107666 390.122375,475.334320 371.858887,473.940979 
	C371.708405,473.876678 371.390930,473.797302 371.390930,473.797302 
z"/>
<path fill="#FE6584" opacity="1.000000" stroke="none" 
	d="
M515.080383,478.146820 
	C530.127075,471.416901 543.132812,462.085602 554.267395,449.743652 
	C568.215271,434.283295 572.251892,417.019257 566.647583,397.164337 
	C565.073181,391.586426 563.952515,385.880432 562.964111,379.977722 
	C566.893555,381.822113 570.482544,383.921967 574.205811,386.321259 
	C577.794250,390.729156 581.248535,394.837616 584.702759,398.946075 
	C586.220337,402.182465 587.737915,405.418854 589.457153,408.949463 
	C592.554077,419.703247 595.449402,430.162781 598.611450,441.306458 
	C601.213257,450.706177 603.548340,459.421783 605.883362,468.137390 
	C606.265137,470.155487 606.646973,472.173615 606.738892,474.879089 
	C588.515747,476.710449 570.593567,478.097748 552.645264,478.907898 
	C541.718689,479.401093 530.751648,479.038635 519.803406,478.968994 
	C518.227356,478.958954 516.654663,478.433655 515.080383,478.146820 
z"/>
<path fill="#696683" opacity="1.000000" stroke="none" 
	d="
M584.747009,398.480713 
	C581.248535,394.837616 577.794250,390.729156 574.499573,386.021912 
	C574.783508,384.776031 575.015869,384.129059 575.016479,383.481842 
	C575.036377,363.486847 575.037964,343.491821 575.020691,323.496796 
	C575.019836,322.537628 574.821594,321.578644 574.649475,320.024994 
	C571.997803,320.024994 569.547913,320.024994 567.098145,320.024994 
	C567.394226,316.627228 567.690369,313.229462 568.008301,309.391968 
	C571.181030,309.009521 574.331848,309.088562 577.483093,309.119537 
	C583.621338,309.179840 584.806396,310.290924 584.816589,316.329163 
	C584.841492,331.105774 584.828613,345.882416 584.822937,360.659058 
	C584.818237,373.111145 584.802246,385.563232 584.747009,398.480713 
z"/>
<path fill="#F7BCBD" opacity="1.000000" stroke="none" 
	d="
M440.020416,283.016937 
	C440.772156,283.693970 441.423157,284.552216 441.562012,285.486511 
	C442.666260,292.916962 445.734650,298.978943 451.453827,304.260284 
	C456.661285,309.069061 456.513245,315.941803 454.495819,322.484344 
	C453.422394,325.965485 451.917297,329.313568 450.048004,332.759003 
	C446.658844,328.523560 443.828735,324.250793 440.998657,319.978027 
	C439.985260,316.639374 438.971893,313.300720 437.924988,309.590881 
	C436.401428,300.413788 436.181030,291.695343 440.020416,283.016937 
z"/>
<path fill="#39374D" opacity="1.000000" stroke="none" 
	d="
M606.330566,468.115234 
	C603.548340,459.421783 601.213257,450.706177 598.845459,441.598785 
	C598.872986,403.064117 598.933350,364.921265 598.992981,326.778381 
	C598.996094,324.800598 598.993408,322.822845 598.993408,320.424866 
	C658.055542,320.424866 716.719788,320.424866 775.772888,320.424866 
	C775.872742,322.190277 776.043213,323.804138 776.043701,325.418030 
	C776.057983,372.392853 775.987549,419.367950 776.161133,466.342133 
	C776.178345,471.002777 774.852600,472.226105 770.295410,472.108612 
	C748.345276,471.542542 726.386108,471.338928 704.431458,470.934998 
	C690.137024,470.672028 675.845154,470.279022 661.551758,469.957306 
	C646.259399,469.613098 630.965820,469.318726 615.674988,468.918793 
	C612.704102,468.841064 609.743225,468.378235 606.330566,468.115234 
M713.501709,368.124634 
	C711.488342,357.507202 705.949158,354.787018 696.433777,359.998322 
	C692.976257,361.891876 689.835449,364.363556 686.999268,366.269623 
	C682.513611,363.623657 678.599121,360.670959 674.212402,358.866241 
	C666.063721,355.513916 660.812073,358.899261 660.093323,367.682800 
	C659.718018,372.269379 660.027161,376.911957 660.027161,381.872833 
	C656.374268,383.872375 651.753723,385.849670 647.766174,388.709473 
	C641.258972,393.376221 641.038635,399.472778 647.318909,404.395996 
	C651.294617,407.512573 656.084595,409.590424 660.687256,412.236450 
	C660.483704,416.073914 659.895508,420.375427 660.101318,424.638611 
	C660.591492,434.792328 667.197876,438.575378 676.138672,433.860657 
	C679.918152,431.867706 683.377686,429.268280 686.923157,426.982849 
	C690.152771,429.104889 693.179688,431.483032 696.536072,433.227081 
	C707.125732,438.729584 713.620605,434.789459 713.779358,422.774567 
	C713.829102,419.016754 713.197937,415.249969 712.905151,411.801392 
	C716.895874,409.783112 720.624268,408.272003 723.955750,406.140656 
	C733.074036,400.307281 733.050903,392.885559 723.910217,387.086731 
	C720.441101,384.885925 715.094482,384.112518 713.381287,381.105804 
	C711.660828,378.086273 713.398804,373.096100 713.501709,368.124634 
z"/>
<path fill="#E15A76" opacity="1.000000" stroke="none" 
	d="
M514.708435,478.160095 
	C516.654663,478.433655 518.227356,478.958954 519.803406,478.968994 
	C530.751648,479.038635 541.718689,479.401093 552.645264,478.907898 
	C570.593567,478.097748 588.515747,476.710449 606.743408,475.265747 
	C607.037903,474.964996 607.409912,475.039307 607.632935,475.455627 
	C607.980347,476.936066 608.104797,478.000244 608.229248,479.064392 
	C603.811768,479.515594 599.403809,480.195312 594.975220,480.381287 
	C564.007324,481.681549 533.035217,482.879700 502.064484,484.110535 
	C502.023254,483.619873 501.982025,483.129211 501.940765,482.638550 
	C506.072693,481.150146 510.204590,479.661774 514.708435,478.160095 
z"/>
<path fill="#5B5871" opacity="1.000000" stroke="none" 
	d="
M608.669495,479.052124 
	C608.104797,478.000244 607.980347,476.936066 607.821716,475.473633 
	C614.380249,474.716858 620.969666,474.176941 627.566772,474.057739 
	C632.760986,473.963837 636.113037,477.115601 637.000122,482.619202 
	C631.859802,477.114075 625.362366,477.330994 618.454285,478.601807 
	C615.415405,479.160858 612.229126,478.918396 608.669495,479.052124 
z"/>
<path fill="#4267B2" opacity="1.000000" stroke="none" 
	d="
M440.530396,319.985962 
	C443.828735,324.250793 446.658844,328.523560 449.776550,332.992920 
	C446.591553,344.903839 443.119019,356.618164 439.409729,368.610168 
	C424.970276,366.004272 411.058990,365.140015 398.335815,374.839417 
	C398.009552,358.185913 398.110474,341.425842 397.917450,324.669159 
	C397.874084,320.904266 399.042694,319.859680 402.729340,319.920502 
	C415.170624,320.125854 427.617432,319.995758 440.530396,319.985962 
z"/>
<path fill="#4267B2" opacity="1.000000" stroke="none" 
	d="
M567.015564,320.391602 
	C569.547913,320.024994 571.997803,320.024994 574.649475,320.024994 
	C574.821594,321.578644 575.019836,322.537628 575.020691,323.496796 
	C575.037964,343.491821 575.036377,363.486847 575.016479,383.481842 
	C575.015869,384.129059 574.783508,384.776031 574.365356,385.722473 
	C570.482544,383.921967 566.893555,381.822113 562.929565,379.513733 
	C560.717834,369.390778 558.255432,359.534607 557.324951,349.535858 
	C556.900085,344.970001 559.209534,340.023895 560.799133,335.430298 
	C562.529114,330.430725 564.862671,325.640015 567.015564,320.391602 
z"/>
<path fill="#E15A76" opacity="1.000000" stroke="none" 
	d="
M372.009369,474.005249 
	C390.122375,475.334320 408.216644,477.107666 426.353424,477.873871 
	C446.565247,478.727783 466.815765,478.665833 487.516907,478.997864 
	C487.513641,482.212280 485.676239,483.303497 482.447144,483.163422 
	C450.800262,481.791046 419.148010,480.544342 387.500305,479.190521 
	C382.703003,478.985291 377.921295,478.414246 372.674805,477.533752 
	C372.147919,476.038513 372.078644,475.021881 372.009369,474.005249 
z"/>
<path fill="#5B5871" opacity="1.000000" stroke="none" 
	d="
M371.858887,473.940979 
	C372.078644,475.021881 372.147919,476.038513 372.288818,477.429626 
	C369.710358,477.861206 366.955414,477.480255 364.435944,478.083221 
	C361.066223,478.889679 357.879089,480.458893 354.292419,481.846802 
	C353.690369,477.764099 356.829285,474.345337 361.505676,474.039032 
	C364.461334,473.845428 367.436707,473.952728 370.897095,473.861206 
	C371.390930,473.797302 371.708405,473.876678 371.858887,473.940979 
z"/>
<path fill="#39374D" opacity="1.000000" stroke="none" 
	d="
M373.043762,448.574829 
	C372.124817,455.052032 371.167694,461.059845 370.223633,467.526123 
	C359.191223,468.353455 348.145721,468.722321 336.585846,468.663055 
	C336.050385,460.490051 336.029327,452.745117 336.010315,444.531555 
	C336.011230,417.708252 336.010071,391.353668 336.012268,364.530518 
	C336.014648,356.374329 336.013672,348.686676 336.014587,340.530579 
	C336.054382,333.331116 336.092346,326.600128 336.130341,319.869141 
	C348.212189,319.869141 360.294037,319.869141 373.005585,319.869141 
	C373.005585,363.110596 373.005585,405.608032 373.043762,448.574829 
z"/>
<path fill="#39374D" opacity="1.000000" stroke="none" 
	d="
M230.852875,471.165039 
	C220.566208,471.450043 210.277267,471.674438 199.994293,472.058380 
	C197.057236,472.168030 195.869492,471.301453 195.874817,468.147522 
	C195.956741,419.707062 195.936630,371.266418 195.953522,322.825836 
	C195.953751,322.174927 196.125244,321.524078 196.344330,319.966614 
	C207.528076,319.966614 218.765106,319.966614 230.490662,320.419250 
	C230.993195,342.583679 231.007202,364.295502 231.013550,386.475098 
	C231.002563,393.731781 230.994446,400.520660 230.997223,407.309570 
	C230.999893,413.872070 231.013794,420.434570 231.014542,427.465851 
	C230.955185,442.344757 230.904022,456.754913 230.852875,471.165039 
z"/>
<path fill="#192C4F" opacity="1.000000" stroke="none" 
	d="
M231.021210,386.007324 
	C231.007202,364.295502 230.993195,342.583679 230.954346,320.395813 
	C231.042831,318.465424 231.156174,317.011047 231.310043,315.036682 
	C260.054382,315.036682 288.556732,315.036682 317.527771,315.456970 
	C316.044159,321.547424 316.161804,326.572113 321.544525,330.651398 
	C322.668396,331.503143 322.838409,334.009552 322.899750,335.772552 
	C322.987091,338.282837 321.592163,339.539551 319.038422,338.463623 
	C316.103058,337.226990 313.346771,335.419434 310.312439,334.618530 
	C308.503326,334.140961 305.827423,334.530853 304.456665,335.651062 
	C303.530029,336.408325 303.654907,339.352356 304.318787,340.879456 
	C304.879547,342.169281 306.931030,343.686646 308.255768,343.626617 
	C316.891663,343.235046 316.885681,343.103302 318.637817,350.968140 
	C316.388733,349.647797 314.625458,347.541138 312.582672,347.221619 
	C301.308258,345.458435 290.091400,341.678650 278.532745,345.110168 
	C277.354584,345.459961 275.812775,347.164062 275.767792,348.292633 
	C275.597931,352.553009 273.683167,354.988342 269.613831,356.026001 
	C267.711456,356.511169 265.519409,356.874176 264.100220,358.060242 
	C258.632385,362.629944 253.423599,367.509644 248.126221,372.465515 
	C248.134186,372.657257 247.972061,373.005127 247.576492,373.002502 
	C244.089493,374.021637 240.924744,374.875244 237.952698,376.170776 
	C237.095596,376.544434 236.183945,378.287079 236.335281,379.236603 
	C237.289917,385.225739 237.112381,385.565430 231.021210,386.007324 
z"/>
<path fill="#192B4D" opacity="1.000000" stroke="none" 
	d="
M336.008270,445.000214 
	C336.029327,452.745117 336.050385,460.490051 336.132965,468.721008 
	C336.108429,470.851746 336.022369,472.496399 335.893127,474.966309 
	C310.824615,474.966309 285.873352,474.966309 260.381592,474.559296 
	C255.726715,473.071136 251.612350,471.990021 247.719131,470.967010 
	C244.617737,462.817383 237.209457,455.635315 240.541046,446.045837 
	C242.674362,447.853912 245.159927,449.517944 247.070786,451.688049 
	C249.669403,454.639221 253.070068,456.457764 256.158325,454.439270 
	C258.264496,453.062744 259.508392,449.332916 259.849762,446.500092 
	C260.618256,440.122589 260.334534,440.044098 267.352020,440.152985 
	C269.468536,440.537720 271.234283,440.769470 273.070374,441.366882 
	C275.872620,443.107025 278.604492,444.481537 281.336334,445.856018 
	C279.795990,447.713806 278.787842,448.201172 277.745941,448.600464 
	C273.488739,450.231873 270.292572,454.947174 271.068909,458.908173 
	C272.082764,464.081360 276.314941,461.477570 279.178528,461.928131 
	C281.441254,462.284119 283.846405,462.264130 286.111176,461.913239 
	C287.983093,461.623230 290.008087,460.957642 291.495911,459.835968 
	C294.619965,457.480682 297.612488,454.885406 300.314636,452.059418 
	C302.075653,450.217651 303.154785,447.740753 304.684326,445.654633 
	C305.652008,444.334869 306.886414,443.210693 308.358582,442.154602 
	C311.056488,442.149780 313.398590,442.009003 315.737122,441.823242 
	C318.476074,441.605652 323.062897,440.282318 323.641541,441.286469 
	C326.822906,446.807251 331.076630,446.529510 336.008270,445.000214 
M250.118851,468.820740 
	C252.529449,469.231140 254.940063,469.641510 258.072235,470.174713 
	C255.175629,465.334320 253.920883,465.207764 250.118851,468.820740 
z"/>
<path fill="#16284A" opacity="1.000000" stroke="none" 
	d="
M267.001221,440.000000 
	C260.334534,440.044098 260.618256,440.122589 259.849762,446.500092 
	C259.508392,449.332916 258.264496,453.062744 256.158325,454.439270 
	C253.070068,456.457764 249.669403,454.639221 247.070786,451.688049 
	C245.159927,449.517944 242.674362,447.853912 240.541046,446.045837 
	C237.209457,455.635315 244.617737,462.817383 247.719131,470.967010 
	C251.612350,471.990021 255.726715,473.071136 259.914001,474.515686 
	C251.568390,474.919403 243.149490,474.927032 234.731583,475.022217 
	C232.530136,475.047150 230.687378,474.895355 230.890213,471.576050 
	C230.904022,456.754913 230.955185,442.344757 231.420074,427.475647 
	C238.190765,427.762665 244.298416,431.244812 251.004745,428.642548 
	C251.656540,428.389618 253.579620,429.512360 253.768890,430.278900 
	C254.926819,434.968414 258.696991,435.866730 262.504547,437.080383 
	C264.146790,437.603882 265.510803,439.000214 267.001221,440.000000 
z"/>
<path fill="#192F57" opacity="1.000000" stroke="none" 
	d="
M318.994568,351.006897 
	C316.885681,343.103302 316.891663,343.235046 308.255768,343.626617 
	C306.931030,343.686646 304.879547,342.169281 304.318787,340.879456 
	C303.654907,339.352356 303.530029,336.408325 304.456665,335.651062 
	C305.827423,334.530853 308.503326,334.140961 310.312439,334.618530 
	C313.346771,335.419434 316.103058,337.226990 319.038422,338.463623 
	C321.592163,339.539551 322.987091,338.282837 322.899750,335.772552 
	C322.838409,334.009552 322.668396,331.503143 321.544525,330.651398 
	C316.161804,326.572113 316.044159,321.547424 317.994415,315.495728 
	C322.760437,315.077942 327.536987,315.202271 332.293488,314.949097 
	C335.485321,314.779236 336.429840,316.168549 336.109253,319.446106 
	C336.092346,326.600128 336.054382,333.331116 335.664368,340.565491 
	C334.148926,341.961456 332.384094,342.619232 331.927795,343.787903 
	C330.100006,348.469574 326.228363,350.395203 321.655396,352.005737 
	C320.543304,351.671082 319.768921,351.338989 318.994568,351.006897 
z"/>
<path fill="#5FD1F2" opacity="1.000000" stroke="none" 
	d="
M713.561462,368.547089 
	C713.398804,373.096100 711.660828,378.086273 713.381287,381.105804 
	C715.094482,384.112518 720.441101,384.885925 723.910217,387.086731 
	C733.050903,392.885559 733.074036,400.307281 723.955750,406.140656 
	C720.624268,408.272003 716.895874,409.783112 712.905151,411.801392 
	C713.197937,415.249969 713.829102,419.016754 713.779358,422.774567 
	C713.620605,434.789459 707.125732,438.729584 696.536072,433.227081 
	C693.179688,431.483032 690.152771,429.104889 686.923157,426.982849 
	C683.377686,429.268280 679.918152,431.867706 676.138672,433.860657 
	C667.197876,438.575378 660.591492,434.792328 660.101318,424.638611 
	C659.895508,420.375427 660.483704,416.073914 660.687256,412.236450 
	C656.084595,409.590424 651.294617,407.512573 647.318909,404.395996 
	C641.038635,399.472778 641.258972,393.376221 647.766174,388.709473 
	C651.753723,385.849670 656.374268,383.872375 660.027161,381.872833 
	C660.027161,376.911957 659.718018,372.269379 660.093323,367.682800 
	C660.812073,358.899261 666.063721,355.513916 674.212402,358.866241 
	C678.599121,360.670959 682.513611,363.623657 686.999268,366.269623 
	C689.835449,364.363556 692.976257,361.891876 696.433777,359.998322 
	C705.949158,354.787018 711.488342,357.507202 713.561462,368.547089 
M695.007812,409.965820 
	C697.234619,406.284882 699.556152,402.656006 701.625732,398.888733 
	C702.186829,397.867371 702.388184,396.314026 702.072571,395.197693 
	C699.283447,385.331757 694.694031,381.958557 684.661194,382.158722 
	C675.832825,382.334839 669.490906,393.853973 673.151001,401.840240 
	C676.529297,409.211365 681.282227,412.644043 689.386841,410.930450 
	C690.998779,410.589600 692.679138,410.572235 695.007812,409.965820 
M660.671875,386.205444 
	C656.777527,388.357452 652.737061,390.288666 649.039001,392.737122 
	C646.463379,394.442474 646.045776,397.191437 648.167542,399.667938 
	C651.853210,403.969727 656.796143,405.911316 661.706238,407.159241 
	C666.651672,399.580414 666.582764,392.745026 660.671875,386.205444 
M722.086365,402.671814 
	C728.278687,397.701843 728.184265,394.388123 721.410767,390.266357 
	C718.389404,388.427856 715.018860,387.163269 711.811340,385.640411 
	C706.870850,396.533569 706.914978,398.733490 712.215027,407.481445 
	C715.259460,406.036346 718.366943,404.561371 722.086365,402.671814 
M692.589111,420.041199 
	C691.715149,421.133484 690.841125,422.225800 689.351990,424.086884 
	C694.068604,426.642303 698.126526,429.080902 702.391846,431.076324 
	C705.846008,432.692230 708.526794,431.131104 708.874573,427.497314 
	C709.329529,422.745056 708.986023,417.916382 708.986023,412.634460 
	C702.423950,413.904694 696.251465,413.205444 692.589111,420.041199 
M668.255798,413.158142 
	C667.157654,413.503448 665.117676,413.815491 665.104126,414.199066 
	C664.931152,419.101898 664.695984,424.063049 665.354919,428.889496 
	C665.507812,430.009430 669.436035,431.879608 670.807922,431.336273 
	C675.397766,429.518402 679.616516,426.763458 684.025085,424.341156 
	C679.914429,417.981354 676.268616,413.114380 668.255798,413.158142 
M667.473572,380.113556 
	C675.017029,380.134399 680.003723,376.333435 683.635010,369.145447 
	C679.991211,366.868378 676.682129,364.283478 672.951111,362.681580 
	C671.013123,361.849579 667.717651,361.900116 666.108215,363.051514 
	C662.642212,365.530914 663.309204,376.816559 667.473572,380.113556 
M709.635254,370.721558 
	C709.499268,369.736450 709.376099,368.749390 709.225159,367.766571 
	C708.319458,361.867889 705.664490,360.114746 700.337402,362.634338 
	C696.570190,364.416107 693.220581,367.080627 689.641541,369.378662 
	C697.011353,379.197784 699.264282,380.402161 708.689514,379.767029 
	C709.005432,377.089050 709.331909,374.320923 709.635254,370.721558 
M667.205139,404.911682 
	C666.996826,406.117279 666.788574,407.322876 666.555054,408.674530 
	C668.863464,409.079498 670.742065,409.409058 673.427856,409.880219 
	C671.606934,406.885254 670.204102,404.577820 668.597534,401.935333 
	C668.046997,403.099243 667.766296,403.692627 667.205139,404.911682 
M702.473267,406.053650 
	C702.001770,407.133331 701.530273,408.213013 700.800537,409.884064 
	C703.335022,409.328979 705.145508,408.932465 707.428162,408.432495 
	C706.630920,406.086548 706.005249,404.245300 705.093384,401.561981 
	C703.968445,403.506348 703.407349,404.476105 702.473267,406.053650 
M701.597290,385.643280 
	C702.601013,387.382843 703.604736,389.122406 705.197144,391.882172 
	C706.135193,388.726746 706.671021,386.924377 707.576233,383.879486 
	C704.865234,384.341370 703.063538,384.648315 701.597290,385.643280 
M683.877747,417.256622 
	C684.881836,418.212769 685.885864,419.168884 687.124084,420.347961 
	C688.602966,418.483856 689.756470,417.029907 690.909912,415.575989 
	C690.642212,415.134583 690.374512,414.693207 690.106750,414.251831 
	C687.864197,415.051849 685.621582,415.851837 683.877747,417.256622 
M671.480713,386.527863 
	C671.597351,383.269867 671.462891,383.230621 666.472412,385.343323 
	C667.020447,387.098480 667.581116,388.894043 668.387085,391.475189 
	C669.566101,389.617004 670.328979,388.414734 671.480713,386.527863 
z"/>
<path fill="#152543" opacity="1.000000" stroke="none" 
	d="
M318.637817,350.968140 
	C319.768921,351.338989 320.543304,351.671082 321.706879,352.344727 
	C325.759857,355.567200 329.423615,358.448120 333.087341,361.329041 
	C332.920441,361.502197 332.753540,361.675354 332.586609,361.848541 
	C333.727386,362.898712 334.868164,363.948883 336.008942,364.999054 
	C336.010071,391.353668 336.011230,417.708252 336.010315,444.531555 
	C331.076630,446.529510 326.822906,446.807251 323.641541,441.286469 
	C323.062897,440.282318 318.476074,441.605652 315.737122,441.823242 
	C313.398590,442.009003 311.056488,442.149780 308.349487,441.771973 
	C306.714905,437.367920 303.852997,437.369171 300.967163,438.784943 
	C298.946411,439.776306 297.410461,441.709320 295.473511,442.928680 
	C292.480377,444.812988 289.560028,447.507416 285.585785,445.031860 
	C283.077057,443.469147 280.669006,441.634766 277.965546,440.540619 
	C276.596710,439.986633 274.672913,440.803925 273.000000,441.001221 
	C271.234283,440.769470 269.468536,440.537720 267.352020,440.152985 
	C265.510803,439.000214 264.146790,437.603882 262.504547,437.080383 
	C258.696991,435.866730 254.926819,434.968414 253.768890,430.278900 
	C253.579620,429.512360 251.656540,428.389618 251.004745,428.642548 
	C244.298416,431.244812 238.190765,427.762665 231.428284,427.006836 
	C231.013794,420.434570 230.999893,413.872070 230.997223,407.309570 
	C230.994446,400.520660 231.002563,393.731781 231.013550,386.475098 
	C237.112381,385.565430 237.289917,385.225739 236.335281,379.236603 
	C236.183945,378.287079 237.095596,376.544434 237.952698,376.170776 
	C240.924744,374.875244 244.089493,374.021637 247.729523,373.301392 
	C254.498718,378.630188 260.719299,383.657501 267.863678,389.431396 
	C270.636414,382.416138 272.929626,376.614136 275.613739,369.823090 
	C269.938660,370.302368 265.684509,370.644928 261.433746,371.025269 
	C256.993561,371.422546 252.556625,371.856110 248.118271,372.273804 
	C253.423599,367.509644 258.632385,362.629944 264.100220,358.060242 
	C265.519409,356.874176 267.711456,356.511169 269.613831,356.026001 
	C273.683167,354.988342 275.597931,352.553009 275.767792,348.292633 
	C275.812775,347.164062 277.354584,345.459961 278.532745,345.110168 
	C290.091400,341.678650 301.308258,345.458435 312.582672,347.221619 
	C314.625458,347.541138 316.388733,349.647797 318.637817,350.968140 
M302.993011,410.886017 
	C303.622650,413.554871 304.252289,416.223724 305.047058,419.592621 
	C308.893372,415.955994 312.247437,412.784790 316.000519,409.236298 
	C294.990875,393.408691 289.350494,371.714447 287.817596,348.500946 
	C279.940399,347.655426 278.991669,348.381317 278.994293,353.783997 
	C279.001953,369.566559 274.560608,383.974670 264.834808,396.491882 
	C261.302795,401.037598 257.095215,405.058502 252.699600,409.861084 
	C256.067535,413.117950 259.348602,416.290833 263.263031,420.076172 
	C265.189362,406.961212 270.386047,400.553345 279.464203,398.837250 
	C289.436066,396.952240 297.494263,400.883850 302.993011,410.886017 
M312.480469,372.066528 
	C306.177979,371.380005 299.875488,370.693512 292.318604,369.870392 
	C295.080414,376.899139 297.335938,382.639465 299.975128,389.356110 
	C307.344025,383.866272 313.800842,379.055939 320.257660,374.245575 
	C320.060028,373.826874 319.862396,373.408142 319.664764,372.989441 
	C317.558136,372.700012 315.451538,372.410583 312.480469,372.066528 
z"/>
<path fill="#192C4F" opacity="1.000000" stroke="none" 
	d="
M336.012268,364.530518 
	C334.868164,363.948883 333.727386,362.898712 332.586609,361.848541 
	C332.753540,361.675354 332.920441,361.502197 333.087341,361.329041 
	C329.423615,358.448120 325.759857,355.567200 322.044617,352.347290 
	C326.228363,350.395203 330.100006,348.469574 331.927795,343.787903 
	C332.384094,342.619232 334.148926,341.961456 335.662537,341.033966 
	C336.013672,348.686676 336.014648,356.374329 336.012268,364.530518 
z"/>
<path fill="#CFBA67" opacity="1.000000" stroke="none" 
	d="
M248.126221,372.465546 
	C252.556625,371.856110 256.993561,371.422546 261.433746,371.025269 
	C265.684509,370.644928 269.938660,370.302368 275.613739,369.823090 
	C272.929626,376.614136 270.636414,382.416138 267.863678,389.431396 
	C260.719299,383.657501 254.498718,378.630188 248.125092,373.303986 
	C247.972061,373.005127 248.134186,372.657257 248.126221,372.465546 
z"/>
<path fill="#16284A" opacity="1.000000" stroke="none" 
	d="
M273.070374,441.366882 
	C274.672913,440.803925 276.596710,439.986633 277.965546,440.540619 
	C280.669006,441.634766 283.077057,443.469147 285.585785,445.031860 
	C289.560028,447.507416 292.480377,444.812988 295.473511,442.928680 
	C297.410461,441.709320 298.946411,439.776306 300.967163,438.784943 
	C303.852997,437.369171 306.714905,437.367920 307.992126,441.616150 
	C306.886414,443.210693 305.652008,444.334869 304.684326,445.654633 
	C303.154785,447.740753 302.075653,450.217651 300.314636,452.059418 
	C297.612488,454.885406 294.619965,457.480682 291.495911,459.835968 
	C290.008087,460.957642 287.983093,461.623230 286.111176,461.913239 
	C283.846405,462.264130 281.441254,462.284119 279.178528,461.928131 
	C276.314941,461.477570 272.082764,464.081360 271.068909,458.908173 
	C270.292572,454.947174 273.488739,450.231873 277.745941,448.600464 
	C278.787842,448.201172 279.795990,447.713806 281.336334,445.856018 
	C278.604492,444.481537 275.872620,443.107025 273.070374,441.366882 
z"/>
<path fill="#16284A" opacity="1.000000" stroke="none" 
	d="
M249.840454,468.601746 
	C253.920883,465.207764 255.175629,465.334320 258.072235,470.174713 
	C254.940063,469.641510 252.529449,469.231140 249.840454,468.601746 
z"/>
<path fill="#3B3D54" opacity="1.000000" stroke="none" 
	d="
M694.667847,410.185760 
	C692.679138,410.572235 690.998779,410.589600 689.386841,410.930450 
	C681.282227,412.644043 676.529297,409.211365 673.151001,401.840240 
	C669.490906,393.853973 675.832825,382.334839 684.661194,382.158722 
	C694.694031,381.958557 699.283447,385.331757 702.072571,395.197693 
	C702.388184,396.314026 702.186829,397.867371 701.625732,398.888733 
	C699.556152,402.656006 697.234619,406.284882 694.667847,410.185760 
M692.163269,402.711578 
	C695.759094,397.964478 695.825195,394.039917 692.362732,390.884003 
	C689.283875,388.077728 684.631348,387.958740 681.516052,390.694641 
	C678.137268,393.661865 677.911926,397.290070 679.964172,400.983856 
	C682.223145,405.049652 686.396362,405.727081 692.163269,402.711578 
z"/>
<path fill="#3A3C52" opacity="1.000000" stroke="none" 
	d="
M661.052979,386.165466 
	C666.582764,392.745026 666.651672,399.580414 661.706238,407.159241 
	C656.796143,405.911316 651.853210,403.969727 648.167542,399.667938 
	C646.045776,397.191437 646.463379,394.442474 649.039001,392.737122 
	C652.737061,390.288666 656.777527,388.357452 661.052979,386.165466 
z"/>
<path fill="#3A3C52" opacity="1.000000" stroke="none" 
	d="
M721.780396,402.879089 
	C718.366943,404.561371 715.259460,406.036346 712.215027,407.481445 
	C706.914978,398.733490 706.870850,396.533569 711.811340,385.640411 
	C715.018860,387.163269 718.389404,388.427856 721.410767,390.266357 
	C728.184265,394.388123 728.278687,397.701843 721.780396,402.879089 
z"/>
<path fill="#3A3C52" opacity="1.000000" stroke="none" 
	d="
M692.829041,419.774139 
	C696.251465,413.205444 702.423950,413.904694 708.986023,412.634460 
	C708.986023,417.916382 709.329529,422.745056 708.874573,427.497314 
	C708.526794,431.131104 705.846008,432.692230 702.391846,431.076324 
	C698.126526,429.080902 694.068604,426.642303 689.351990,424.086884 
	C690.841125,422.225800 691.715149,421.133484 692.829041,419.774139 
z"/>
<path fill="#3A3C52" opacity="1.000000" stroke="none" 
	d="
M668.665527,413.264069 
	C676.268616,413.114380 679.914429,417.981354 684.025085,424.341156 
	C679.616516,426.763458 675.397766,429.518402 670.807922,431.336273 
	C669.436035,431.879608 665.507812,430.009430 665.354919,428.889496 
	C664.695984,424.063049 664.931152,419.101898 665.104126,414.199066 
	C665.117676,413.815491 667.157654,413.503448 668.665527,413.264069 
z"/>
<path fill="#3A3C52" opacity="1.000000" stroke="none" 
	d="
M667.032959,380.166504 
	C663.309204,376.816559 662.642212,365.530914 666.108215,363.051514 
	C667.717651,361.900116 671.013123,361.849579 672.951111,362.681580 
	C676.682129,364.283478 679.991211,366.868378 683.635010,369.145447 
	C680.003723,376.333435 675.017029,380.134399 667.032959,380.166504 
z"/>
<path fill="#3A3C52" opacity="1.000000" stroke="none" 
	d="
M709.646851,371.137177 
	C709.331909,374.320923 709.005432,377.089050 708.689514,379.767029 
	C699.264282,380.402161 697.011353,379.197784 689.641541,369.378662 
	C693.220581,367.080627 696.570190,364.416107 700.337402,362.634338 
	C705.664490,360.114746 708.319458,361.867889 709.225159,367.766571 
	C709.376099,368.749390 709.499268,369.736450 709.646851,371.137177 
z"/>
<path fill="#4B485C" opacity="1.000000" stroke="none" 
	d="
M667.345398,404.598816 
	C667.766296,403.692627 668.046997,403.099243 668.597534,401.935333 
	C670.204102,404.577820 671.606934,406.885254 673.427856,409.880219 
	C670.742065,409.409058 668.863464,409.079498 666.555054,408.674530 
	C666.788574,407.322876 666.996826,406.117279 667.345398,404.598816 
z"/>
<path fill="#4B485C" opacity="1.000000" stroke="none" 
	d="
M702.659790,405.749756 
	C703.407349,404.476105 703.968445,403.506348 705.093384,401.561981 
	C706.005249,404.245300 706.630920,406.086548 707.428162,408.432495 
	C705.145508,408.932465 703.335022,409.328979 700.800537,409.884064 
	C701.530273,408.213013 702.001770,407.133331 702.659790,405.749756 
z"/>
<path fill="#4B485C" opacity="1.000000" stroke="none" 
	d="
M701.429565,385.299286 
	C703.063538,384.648315 704.865234,384.341370 707.576233,383.879486 
	C706.671021,386.924377 706.135193,388.726746 705.197144,391.882172 
	C703.604736,389.122406 702.601013,387.382843 701.429565,385.299286 
z"/>
<path fill="#403D56" opacity="1.000000" stroke="none" 
	d="
M683.628418,416.954224 
	C685.621582,415.851837 687.864197,415.051849 690.106750,414.251831 
	C690.374512,414.693207 690.642212,415.134583 690.909912,415.575989 
	C689.756470,417.029907 688.602966,418.483856 687.124084,420.347961 
	C685.885864,419.168884 684.881836,418.212769 683.628418,416.954224 
z"/>
<path fill="#4B485C" opacity="1.000000" stroke="none" 
	d="
M671.286255,386.870148 
	C670.328979,388.414734 669.566101,389.617004 668.387085,391.475189 
	C667.581116,388.894043 667.020447,387.098480 666.472412,385.343323 
	C671.462891,383.230621 671.597351,383.269867 671.286255,386.870148 
z"/>
<path fill="#D3BC66" opacity="1.000000" stroke="none" 
	d="
M302.843811,410.528748 
	C297.494263,400.883850 289.436066,396.952240 279.464203,398.837250 
	C270.386047,400.553345 265.189362,406.961212 263.263031,420.076172 
	C259.348602,416.290833 256.067535,413.117950 252.699600,409.861084 
	C257.095215,405.058502 261.302795,401.037598 264.834808,396.491882 
	C274.560608,383.974670 279.001953,369.566559 278.994293,353.783997 
	C278.991669,348.381317 279.940399,347.655426 287.817596,348.500946 
	C289.350494,371.714447 294.990875,393.408691 316.000519,409.236298 
	C312.247437,412.784790 308.893372,415.955994 305.047058,419.592621 
	C304.252289,416.223724 303.622650,413.554871 302.843811,410.528748 
z"/>
<path fill="#CFBA67" opacity="1.000000" stroke="none" 
	d="
M312.912689,372.093842 
	C315.451538,372.410583 317.558136,372.700012 319.664764,372.989441 
	C319.862396,373.408142 320.060028,373.826874 320.257660,374.245575 
	C313.800842,379.055939 307.344025,383.866272 299.975128,389.356110 
	C297.335938,382.639465 295.080414,376.899139 292.318604,369.870392 
	C299.875488,370.693512 306.177979,371.380005 312.912689,372.093842 
z"/>
<path fill="#60D6F6" opacity="1.000000" stroke="none" 
	d="
M691.862915,402.955078 
	C686.396362,405.727081 682.223145,405.049652 679.964172,400.983856 
	C677.911926,397.290070 678.137268,393.661865 681.516052,390.694641 
	C684.631348,387.958740 689.283875,388.077728 692.362732,390.884003 
	C695.825195,394.039917 695.759094,397.964478 691.862915,402.955078 
z"/>
</svg>